<svg xmlns="http://www.w3.org/2000/svg" viewBox="0 0 124.27 128.74"><defs><style>.cls-1{fill:#facee0;}.cls-2{fill:#fff;}</style></defs><title>Asset 1</title><g id="Layer_2" data-name="Layer 2"><g id="Layer_1-2" data-name="Layer 1"><path class="cls-1" d="M32.21,10.37C25.39,14.16,11.9,23,4.85,39.43c-11.93,27.76-2,69.26,31.88,84.17,28.45,12.5,62.83,1.47,79.14-25.17,21.79-35.58-4.9-72.55-11.63-80.25C101,14.43,93.28,5.63,86.88,7.6a8.63,8.63,0,0,0-4.58,3.94A15.53,15.53,0,0,0,78.67,5C73.9,0,66.77,0,60.78,0A52.78,52.78,0,0,0,45.47,2.47a69.55,69.55,0,0,0-8.74,3.12Z"/><path class="cls-2" d="M37.2,56.73C36.63,51.85,35.65,46.54,31,44c-4.22-2.32-8.93-.25-11.68,3.3-5.12,6.62-4.72,18.11-4.07,26,.84,10.42,3.91,22.33,10.69,30.6,5.43,6.61,14.59,10.9,22.68,6.36,3.12-1.76.32-6.57-2.82-4.81-5.63,3.16-11.93-.65-15.6-5.1-4.86-5.87-7.49-14.48-8.74-21.84a69.23,69.23,0,0,1-.48-18.8c.34-3.14.82-6.83,3-9.32,4.77-5.54,7.31,2.64,7.74,6.36.42,3.51,6,3.56,5.57,0Z"/><path class="cls-2" d="M39.52,30.44c8.18,6.79,7.75,19,12.15,28,1.59,3.29,6.16.41,4.8-2.81a35.37,35.37,0,0,1-2.86-14.3c.07-4.36.24-10.31,5.12-12,3.36-1.19,1.91-6.57-1.48-5.37-13.35,4.75-9.77,24.62-5.58,34.53l4.8-2.81c-4.71-9.67-4.11-21.74-13-29.12-2.74-2.28-6.7,1.64-3.93,3.94Z"/><path class="cls-2" d="M64.48,30.2c16.09,2.18,10.42,27.26,7.17,37.23a197.19,197.19,0,0,1-8.07,20c-2.69,6-5.68,11.79-10.93,15.92-2.82,2.21,1.15,6.13,3.94,3.93,6-4.74,9.41-11.63,12.45-18.51,3.56-8,7.14-16.13,9.41-24.63C81.76,51.68,83.8,27.24,66,24.83c-3.51-.47-5,4.89-1.48,5.37Z"/><path class="cls-2" d="M80.42,41.43c.14-5.66,2.45-15.37,10.17-14,3.5.63,5-4.74,1.48-5.37-11.75-2.1-17,9.56-17.22,19.36-.08,3.59,5.49,3.59,5.57,0Z"/><path class="cls-2" d="M95.62,28.93c6,6.26,7.71,15.39,5.71,23.68a25.73,25.73,0,0,1-4.14,9.54c-2.12,2.72-10.59,3.58-7.43-1.46,4.12-6.57,11.88-1.17,12.95,4.55A13.24,13.24,0,0,1,101,74.6C99.44,77,95.73,80.52,92.58,79s-6,3.27-2.81,4.81c7.73,3.68,15.44-3.26,17.8-10.38,2.87-8.69-1.49-20.86-11.89-21.25a12.13,12.13,0,0,0-9.88,4.49c-2.47,3.12-3.66,7.86-.48,11s8.59,3,12.25,1.25c4.21-2,6.39-6.85,8-11,4.17-11.07,2.28-24.2-6-32.86-2.48-2.6-6.41,1.34-3.94,3.93Z"/></g></g></svg>