<svg xmlns="http://www.w3.org/2000/svg" viewBox="0 0 165.21 142.46"><defs><style>.cls-1{fill:#f79520;}.cls-2{fill:#ed4a2f;}.cls-3{fill:#ed4a30;}.cls-4{fill:#fff;}.cls-5{fill:#f3b6b8;}.cls-6{fill:#ef7d72;}.cls-7{fill:#7996cd;}.cls-8{fill:#7dbfe8;}.cls-9{fill:#21509d;}.cls-10{fill:#f7941d;}</style></defs><title>arch-icon-selectedAsset 29</title><g id="Layer_2" data-name="Layer 2"><g id="Layer_1-2" data-name="Layer 1"><rect class="cls-1" x="1" y="1" width="163.21" height="140.46" rx="8.57"/><path class="cls-2" d="M155.65,2a7.57,7.57,0,0,1,7.56,7.57V132.89a7.58,7.58,0,0,1-7.56,7.57H9.57A7.58,7.58,0,0,1,2,132.89V9.57A7.57,7.57,0,0,1,9.57,2H155.65m0-2H9.57A9.56,9.56,0,0,0,0,9.57V132.89a9.57,9.57,0,0,0,9.57,9.57H155.65a9.57,9.57,0,0,0,9.56-9.57V9.57A9.56,9.56,0,0,0,155.65,0Z"/><path class="cls-3" d="M9.79,0H156.25a9,9,0,0,1,9,9V19.63a0,0,0,0,1,0,0H0a0,0,0,0,1,0,0V9.79A9.79,9.79,0,0,1,9.79,0Z"/><path class="cls-4" d="M12.4,6h1.2l2.87,7.89H15.3l-.83-2.36H11.38l-.86,2.36H9.42Zm1.77,4.66L13,7.19l-1.26,3.48Z"/><path class="cls-4" d="M17.56,6h3.59a3.46,3.46,0,0,1,1.46.27A1.86,1.86,0,0,1,23.7,8.14a2.14,2.14,0,0,1-.29,1.16,2.24,2.24,0,0,1-.82.73,1.59,1.59,0,0,1,.69.49,1.66,1.66,0,0,1,.26,1l0,1.06a3,3,0,0,0,.08.67.66.66,0,0,0,.34.49v.17H22.69a.71.71,0,0,1-.09-.26,4.67,4.67,0,0,1-.05-.62l-.06-1.32a1.13,1.13,0,0,0-.56-1,2.2,2.2,0,0,0-.94-.15H18.63V13.9H17.56ZM21,9.63a2,2,0,0,0,1.16-.3,1.25,1.25,0,0,0,.42-1.09A1.19,1.19,0,0,0,22,7.09a2,2,0,0,0-.85-.16H18.63v2.7Z"/><path class="cls-4" d="M31,6.59a2.78,2.78,0,0,1,.91,1.79h-1a2.24,2.24,0,0,0-.69-1.21,2.23,2.23,0,0,0-1.46-.44,2.32,2.32,0,0,0-1.85.82,3.76,3.76,0,0,0-.7,2.51,3.7,3.7,0,0,0,.63,2.25,2.19,2.19,0,0,0,1.9.86,2,2,0,0,0,1.76-.9A3.49,3.49,0,0,0,30.9,11h1A3.58,3.58,0,0,1,31,13.1a3.19,3.19,0,0,1-2.5,1,3.24,3.24,0,0,1-2.28-.83A4.35,4.35,0,0,1,25,9.88,4.39,4.39,0,0,1,25.93,7,3.33,3.33,0,0,1,28.66,5.8,3.14,3.14,0,0,1,31,6.59Z"/><path class="cls-4" d="M33.34,6h1.08V9.27h4.06V6h1.08V13.9H38.48V10.21H34.42V13.9H33.34Z"/><path class="cls-4" d="M41.5,6h1.08V13.9H41.5Z"/><path class="cls-4" d="M50.05,6V7H47.4v7H46.32V7H43.66V6Z"/><path class="cls-4" d="M51.14,6h5.72V7H52.18v2.4h4.33v.91H52.18V13h4.76v.94h-5.8Z"/><path class="cls-4" d="M64,6.59a2.78,2.78,0,0,1,.91,1.79h-1a2.24,2.24,0,0,0-.69-1.21,2.23,2.23,0,0,0-1.46-.44,2.3,2.3,0,0,0-1.85.82,3.76,3.76,0,0,0-.71,2.51,3.71,3.71,0,0,0,.64,2.25,2.19,2.19,0,0,0,1.9.86,2,2,0,0,0,1.76-.9A3.32,3.32,0,0,0,63.89,11h1A3.64,3.64,0,0,1,64,13.1a3.21,3.21,0,0,1-2.5,1,3.28,3.28,0,0,1-2.29-.83A4.38,4.38,0,0,1,58,9.88,4.39,4.39,0,0,1,58.93,7,3.33,3.33,0,0,1,61.66,5.8,3.14,3.14,0,0,1,64,6.59Z"/><path class="cls-4" d="M72.05,6V7H69.4v7H68.32V7H65.66V6Z"/><path class="cls-4" d="M74.19,6v4.88a2.83,2.83,0,0,0,.33,1.43,1.71,1.71,0,0,0,1.62.86A1.91,1.91,0,0,0,78,12.25a2.91,2.91,0,0,0,.27-1.36V6h1.08v4.44a5,5,0,0,1-.4,2.24,3.32,3.32,0,0,1-5.45,0,5.18,5.18,0,0,1-.39-2.24V6Z"/><path class="cls-4" d="M81.11,6H84.7a3.49,3.49,0,0,1,1.46.27,1.86,1.86,0,0,1,1.09,1.86A2.06,2.06,0,0,1,87,9.3a2.13,2.13,0,0,1-.81.73,1.59,1.59,0,0,1,.69.49,1.73,1.73,0,0,1,.26,1l0,1.06a3.17,3.17,0,0,0,.07.67.7.7,0,0,0,.35.49v.17H86.24a.71.71,0,0,1-.09-.26A4.67,4.67,0,0,1,86.1,13L86,11.7a1.1,1.1,0,0,0-.55-1,2.2,2.2,0,0,0-.94-.15H82.18V13.9H81.11Zm3.47,3.62a2,2,0,0,0,1.16-.3,1.25,1.25,0,0,0,.42-1.09,1.19,1.19,0,0,0-.59-1.15,2,2,0,0,0-.85-.16H82.18v2.7Z"/><path class="cls-4" d="M89,6h5.73V7H90.07v2.4H94.4v.91H90.07V13h4.76v.94H89Z"/><path class="cls-3" d="M127,88.3a11.25,11.25,0,0,0-7.4-1.33A6.2,6.2,0,0,0,115,91.13c-2.23,2.83-2.78,6.91-2.17,10.66.87,5.45,4.5,9.67,10.16,10.22,2.74.27,6-.27,7.89-2.4s2.69-5.18,2.94-8A13.79,13.79,0,0,0,127,88.3Z"/><path class="cls-5" d="M125.85,92.43a.13.13,0,0,0,0,.26A.13.13,0,0,0,125.85,92.43Z"/><path class="cls-5" d="M120.61,97.67a.14.14,0,0,0,0,.27A.14.14,0,0,0,120.61,97.67Z"/><path class="cls-5" d="M120.61,97.34a.14.14,0,0,0,0,.27A.14.14,0,0,0,120.61,97.34Z"/><path class="cls-5" d="M123,94.27a.15.15,0,0,0-.1,0h0a.13.13,0,0,0,0,.26H123A.14.14,0,0,0,123,94.27Z"/><path class="cls-5" d="M126.18,96.85a.14.14,0,0,0,0,.27A.14.14,0,0,0,126.18,96.85Z"/><path class="cls-5" d="M127.16,96.2a.13.13,0,0,0,0,.26A.13.13,0,0,0,127.16,96.2Z"/><path class="cls-5" d="M126.67,96.85a.14.14,0,0,0,0,.27A.14.14,0,0,0,126.67,96.85Z"/><path class="cls-5" d="M125.69,99a.14.14,0,0,0,0,.27A.14.14,0,0,0,125.69,99Z"/><path class="cls-5" d="M123.07,100.13a.13.13,0,1,0,0,.26A.13.13,0,0,0,123.07,100.13Z"/><path class="cls-5" d="M119.63,101.77a.13.13,0,1,0,0,.26A.13.13,0,0,0,119.63,101.77Z"/><path class="cls-5" d="M117.66,96.85a.14.14,0,0,0,0,.27A.14.14,0,0,0,117.66,96.85Z"/><path class="cls-5" d="M118.31,94.56a.13.13,0,0,0,0,.26A.13.13,0,1,0,118.31,94.56Z"/><path class="cls-5" d="M121.43,91.12a.13.13,0,0,0,0,.26A.13.13,0,0,0,121.43,91.12Z"/><path class="cls-5" d="M126,91.61a.13.13,0,0,0,0,.26A.13.13,0,0,0,126,91.61Z"/><path class="cls-5" d="M128.8,95.05a.13.13,0,0,0,0,.26A.13.13,0,0,0,128.8,95.05Z"/><path class="cls-5" d="M128.64,103.4a.14.14,0,0,0,0,.27A.14.14,0,0,0,128.64,103.4Z"/><path class="cls-5" d="M124.38,107.17a.14.14,0,0,0,0,.27A.14.14,0,0,0,124.38,107.17Z"/><path class="cls-5" d="M119.3,106h0a.11.11,0,0,0-.1,0,.15.15,0,0,0,0,.18.13.13,0,0,0,.1,0h0A.13.13,0,0,0,119.3,106Z"/><path class="cls-5" d="M119.63,104.25a.27.27,0,0,0,0,.53A.27.27,0,0,0,119.63,104.25Z"/><path class="cls-5" d="M116.35,102.12a.27.27,0,0,0,0,.53A.27.27,0,0,0,116.35,102.12Z"/><path class="cls-5" d="M117.17,105.4a.27.27,0,0,0,0,.53A.27.27,0,0,0,117.17,105.4Z"/><path class="cls-5" d="M122.74,108.68a.27.27,0,0,0,0,.53A.27.27,0,0,0,122.74,108.68Z"/><path class="cls-5" d="M123.39,103.27a.27.27,0,0,0,0,.53A.27.27,0,0,0,123.39,103.27Z"/><path class="cls-5" d="M116.68,108.51a.27.27,0,0,0,0,.53A.27.27,0,0,0,116.68,108.51Z"/><path class="cls-5" d="M119.63,109.5a.27.27,0,0,0,0,.53A.27.27,0,0,0,119.63,109.5Z"/><path class="cls-5" d="M114.71,104.09a.27.27,0,0,0,0,.53A.27.27,0,0,0,114.71,104.09Z"/><path class="cls-5" d="M116,105.73a.27.27,0,0,0,0,.53A.27.27,0,0,0,116,105.73Z"/><path class="cls-5" d="M129,92.13a.27.27,0,0,0,0,.53A.27.27,0,0,0,129,92.13Z"/><path class="cls-5" d="M124.54,89.18a.27.27,0,0,0,0,.53A.27.27,0,0,0,124.54,89.18Z"/><path class="cls-5" d="M124.54,94.75a.27.27,0,0,0,0,.53A.27.27,0,0,0,124.54,94.75Z"/><path class="cls-5" d="M151.27,105.19a8.38,8.38,0,0,0-1.67-2.49,4,4,0,0,0-3.3-3,4.27,4.27,0,0,0-1.76-.37c-5.58-.06-10.16,3.81-13.06,8.25s-5.92,10.05-3,15.05c1.36,2.32,3.93,3.64,6.33,4.63a12.61,12.61,0,0,0,7.75,1.05c5.48-1.33,7.92-8.5,8.95-13.37C152.18,111.85,152.6,108.15,151.27,105.19Z"/><path class="cls-6" d="M142.12,104.32a.16.16,0,0,0-.05.32A.16.16,0,0,0,142.12,104.32Z"/><path class="cls-6" d="M136.32,108.58a.16.16,0,0,0-.06.31A.16.16,0,0,0,136.32,108.58Z"/><path class="cls-6" d="M141.83,113a.16.16,0,0,0-.06.32C142,113.33,142,113,141.83,113Z"/><path class="cls-6" d="M138.54,122.53a.16.16,0,0,0,0,.32A.16.16,0,0,0,138.54,122.53Z"/><path class="cls-6" d="M135.79,122.05l-.11,0a.15.15,0,0,0-.09,0,.16.16,0,0,0-.05.32l.1,0a.19.19,0,0,0,.09.05A.16.16,0,0,0,135.79,122.05Z"/><path class="cls-6" d="M132.71,117.67a.16.16,0,0,0-.06.31A.16.16,0,0,0,132.71,117.67Z"/><path class="cls-6" d="M136.15,117.66a.16.16,0,0,0-.06.32A.16.16,0,0,0,136.15,117.66Z"/><path class="cls-6" d="M133,119.34a.16.16,0,0,0-.05.32A.16.16,0,0,0,133,119.34Z"/><path class="cls-6" d="M133.81,114.82a.16.16,0,0,0-.06.32A.16.16,0,0,0,133.81,114.82Z"/><path class="cls-6" d="M141.08,116.09a.16.16,0,0,0-.05.32A.16.16,0,0,0,141.08,116.09Z"/><path class="cls-6" d="M149.14,109.39a.16.16,0,0,0-.06.32A.16.16,0,0,0,149.14,109.39Z"/><path class="cls-6" d="M141.82,127a.16.16,0,0,0,0,.32A.16.16,0,0,0,141.82,127Z"/><path class="cls-6" d="M146.8,124a.16.16,0,0,0-.06.32A.16.16,0,0,0,146.8,124Z"/><path class="cls-6" d="M140.18,117.76a.16.16,0,0,0-.05.31A.16.16,0,0,0,140.18,117.76Z"/><path class="cls-6" d="M129.19,122.73a.16.16,0,0,0-.05.31A.16.16,0,0,0,129.19,122.73Z"/><path class="cls-6" d="M131.42,114.61a.16.16,0,0,0-.06.31A.16.16,0,0,0,131.42,114.61Z"/><path class="cls-6" d="M132,111.07a.16.16,0,0,0-.05.32A.16.16,0,0,0,132,111.07Z"/><path class="cls-6" d="M137.61,110.42a.16.16,0,0,0-.05.32A.16.16,0,0,0,137.61,110.42Z"/><path class="cls-6" d="M138.13,107.47c-.21,0-.26.29-.06.32A.16.16,0,0,0,138.13,107.47Z"/><path class="cls-6" d="M147.75,118.81a.16.16,0,0,0-.06.31A.16.16,0,0,0,147.75,118.81Z"/><path class="cls-6" d="M146.06,120.92a.32.32,0,0,0-.19.61.2.2,0,0,0,.08,0H146A.33.33,0,0,0,146.06,120.92Z"/><path class="cls-6" d="M144.37,119.14a.32.32,0,0,0-.11.64A.32.32,0,0,0,144.37,119.14Z"/><path class="cls-6" d="M143.83,123.57a.32.32,0,0,0-.11.63A.32.32,0,0,0,143.83,123.57Z"/><path class="cls-6" d="M141.62,123.12a.33.33,0,0,0-.12.64A.33.33,0,0,0,141.62,123.12Z"/><path class="cls-6" d="M142.16,119.33a.32.32,0,0,0-.11.63A.32.32,0,0,0,142.16,119.33Z"/><path class="cls-6" d="M149.2,115.41a.32.32,0,0,0-.11.63A.32.32,0,0,0,149.2,115.41Z"/><path class="cls-6" d="M145.46,111.55a.32.32,0,0,0-.11.63A.32.32,0,0,0,145.46,111.55Z"/><path class="cls-6" d="M143.18,102.34a.32.32,0,0,0-.11.63A.32.32,0,0,0,143.18,102.34Z"/><path class="cls-6" d="M139.44,101.11a.33.33,0,0,0-.11.64A.33.33,0,0,0,139.44,101.11Z"/><path class="cls-6" d="M138.85,101.87a.33.33,0,0,0-.11.64A.33.33,0,0,0,138.85,101.87Z"/><path class="cls-6" d="M137.37,101.84a.32.32,0,0,0-.11.64A.32.32,0,0,0,137.37,101.84Z"/><path class="cls-7" d="M61.79,113.75c-1.27-.12-2.53-.21-3.8-.3s-2.36-.27-3.53-.43c-1.41-.37-2.8-.82-4.17-1.32l-6.45-2.58c-.72-.29-1.28.79-.82,1.27a.78.78,0,0,0-.12.93,3.21,3.21,0,0,0,1,1.05.78.78,0,0,0,.13.41v0a.63.63,0,0,0,.14.88c.26.2.52.39.79.57l.41.66a3.65,3.65,0,0,0,.35.52.68.68,0,0,0,.12.38,1.5,1.5,0,0,0,.83.74,1,1,0,0,0,.94-.1l1.69.36a.94.94,0,0,0,.41,0,.79.79,0,0,0,1-.94s0-.1-.05-.14l1.24.58a.66.66,0,0,0,.37.71,3,3,0,0,0,1.55.3.8.8,0,0,0,.32-1.51.59.59,0,0,0-.3-.3l-.75-.36a.68.68,0,0,0,.2-.36l1.68.07,1.25.21a.83.83,0,0,0,.59-.12l1.1.07c1.28.13,2.56.24,3.85.3C62.81,115.35,62.78,113.84,61.79,113.75Z"/><path class="cls-8" d="M121.84,115.47c2-1.91.9-6.19-1.94-6.63a15.71,15.71,0,0,1-3.28-.72,1.67,1.67,0,0,1-1.08-1.18c-.81-2.51-.61-4.26-1.26-6.92A35.89,35.89,0,0,0,111,92.48a20,20,0,0,1-1.31-2.92,6.15,6.15,0,0,1-.45-2.6c0-.13,0-.26,0-.39a4,4,0,0,0-2.46-3.71,20.26,20.26,0,0,0-1.28-6.75c-.81-2.15-2.17-4.08-2.94-6.19a8.94,8.94,0,0,1-.29-1c0-.19,0-.74,0-.89h0a1.53,1.53,0,0,1,0,.18,1.37,1.37,0,0,0,.12-.4h0a1.39,1.39,0,0,0,.34-.17,4.07,4.07,0,0,0,1.86-4.58,10.57,10.57,0,0,1-.45-5.2,4.48,4.48,0,0,0,.09-.89c4.39-.89,8.51-2.69,11.27-6.48a11.33,11.33,0,0,0-2.27-15.91,15.31,15.31,0,0,0-4-2.16,3.78,3.78,0,0,0-1.77-1,38.71,38.71,0,0,0-11.08-1.17,3.09,3.09,0,0,0-.43-.14,16.05,16.05,0,0,0-2.37-.32A136.85,136.85,0,0,0,76.5,27.35q-5.52-.42-11-.39a31.8,31.8,0,0,0-9.16,1.09c-6.24,1.94-9.57,7.38-10,13.73-.37,5.55,1.91,11.66,6.94,14.49,3.26,1.84,7.1,2,10.76,2l1.08,0a3.66,3.66,0,0,0,2.23,1.59A61.1,61.1,0,0,1,83.14,66c4.11,2.3,8.1,5,8.75,10a18.71,18.71,0,0,1-.59,6.81A16.07,16.07,0,0,1,89.42,87c-1.53,2.42-3.1,4.59-3.83,7.23a7.28,7.28,0,0,0-1.06.88,13.7,13.7,0,0,0-2.68,4.6l-13-1.79c-5.87-.8-11.67-1.68-17.57-.65A19.89,19.89,0,0,0,38.37,105c-3.3,4.71-2.64,10.48.93,14.79,3.25,3.92,8.37,6,13.19,7.24a93.87,93.87,0,0,0,16.62,2.18c5.65.36,11.32.42,17,.38,6.42,0,13,.12,19.33-.77a37.77,37.77,0,0,0,16.38-6.43A4.12,4.12,0,0,0,121.84,115.47Zm-31.3-66.1a5.24,5.24,0,0,0,.51-.54,4.16,4.16,0,0,0,.41.62ZM68.16,106.85a4.1,4.1,0,0,0-.64,4.92c.19.26.39.5.59.73a43.25,43.25,0,0,1-15,1.91,3.91,3.91,0,0,0-3.38,1.86,11.11,11.11,0,0,0-1.81.34c-.46-.28-.89-.56-1.12-.74a13.17,13.17,0,0,1-1-1c-.17-.17-.79-.93-.67-.76a6.62,6.62,0,0,1-.64-1.09,5.12,5.12,0,0,0-.18-.65s-.07-.65-.06-.81c0,0-.09.43,0-.14a4.37,4.37,0,0,1,.26-.94c1.18-3,5-4.62,8.17-5.29,4.16-.87,9.21-.14,13.68.47l2.64.36C68.72,106.33,68.43,106.59,68.16,106.85ZM97.4,90.12a3.71,3.71,0,0,0,.13.8l-.4,0Z"/><path class="cls-9" d="M95.29,92.23a21.25,21.25,0,0,1-.57,2.22,1.73,1.73,0,0,0-1.58,1.2c-.16.43-.32.86-.49,1.28a1.83,1.83,0,0,0-1.39-.46L93,93.1a1.73,1.73,0,0,0-.83-2.4c.76-1.6,1.52-3.21,2.29-4.81.95-2-2-3.73-3-1.74-2.29,4.77-4.51,9.58-6.88,14.31a43.91,43.91,0,0,1-8.07,11.86,1.57,1.57,0,0,0-.47,1.54,7.13,7.13,0,0,1-1.64.91c.19-1-.51-2.06-1.66-1.62-4.33,1.67-9,1.7-13.56,1.39a60.11,60.11,0,0,1-7.31-.93c-1.93-.36-4.79-.57-6.21-2.08-1.24-1.32-3.22.67-2,2,1.61,1.72,4.06,2.11,6.27,2.57a68,68,0,0,0,8,1.17c4.74.4,9.71.47,14.29-1a1,1,0,0,0,1.14.75,9.3,9.3,0,0,0,4-1.86A1.68,1.68,0,0,0,78.6,113a12.94,12.94,0,0,0,4.55-4.12,1.33,1.33,0,0,0,1.54-.13,25.28,25.28,0,0,0,4.4-4.37l0,.26c-.13,1.5,1.73,2.09,2.77,1.34,0,.54-.06,1.08-.08,1.63-.09,2.2,3.34,2.2,3.43,0a74.77,74.77,0,0,1,1.27-11.06,1.86,1.86,0,0,0-.09-1.09,23.57,23.57,0,0,0,.74-2.74C97.33,91.55,95.53,91.05,95.29,92.23Z"/><path class="cls-7" d="M71.46,50a73.13,73.13,0,0,1-12.64-.31c-1.84-.21-3.43,1.72-3.43,3.43a3.52,3.52,0,0,0,3.43,3.43,73.13,73.13,0,0,0,12.64.31,3.51,3.51,0,0,0,3.44-3.43A3.46,3.46,0,0,0,71.46,50Z"/><path class="cls-7" d="M107.79,43.89c-1.53,3.22-4.15,4.13-7.44,5a58.89,58.89,0,0,1-11.44,1.65,3.44,3.44,0,0,0,0,6.87,68.8,68.8,0,0,0,14.41-2.2,23,23,0,0,0,3-1,3.08,3.08,0,0,0,.72-.15,10.77,10.77,0,0,0,7-7.43C115,42.91,109.5,40.27,107.79,43.89Z"/><path class="cls-10" d="M87.51,76.18c-2.22-3.22-5.84-5-9.53-6.37a35.32,35.32,0,0,0-10.66-2,62.11,62.11,0,0,0-15.1-.72C47.45,67.44,42,68,38,70.61a16,16,0,0,0-3.58,1.51l-.36.09c-2.1.45-4.27.24-6.36.8a3.1,3.1,0,0,0-.78,5.7c3.08,1.77,4,5.61,4.89,8.68A84.94,84.94,0,0,0,37,101.16a17.25,17.25,0,0,0,4,5.23,6.65,6.65,0,0,0,3.31,3.17c.23.11.46.2.69.3l0,.08a.8.8,0,0,0,.47,1.15,42.46,42.46,0,0,0,15.52,3c2.64,0,6.13,0,8.67-1.32a11.86,11.86,0,0,0,1.41-.51,12,12,0,0,0,3.2-1.2c2.72-1.51,4.9-4.11,6.81-6.51a31.9,31.9,0,0,0,7-15.33c.2-.55.39-1.1.55-1.66C89.7,83.87,89.79,79.51,87.51,76.18ZM42.4,97.37l.12,0c.06.18.11.37.17.56Z"/><path class="cls-3" d="M84.45,75.15C70,65.8,51.64,66.44,36.16,72.88a2.89,2.89,0,0,0-.43.22,17.89,17.89,0,0,1-5.14.63c-2.46-.16-2.95,3.71-.58,4.29,2.59.63,5.2,1.23,7.82,1.78a38.28,38.28,0,0,0,15.5,2.4c1.3.12,2.61.22,3.92.3a74.2,74.2,0,0,0,26.68-3.36A2.21,2.21,0,0,0,84.45,75.15Z"/><path class="cls-4" d="M56.41,72.88c0-1,0-2,.05-3.06a1.31,1.31,0,0,0-.08-.5,2,2,0,0,0,.46-.69A2.56,2.56,0,0,0,57.4,67c0-.58,0-1.16,0-1.75A50.13,50.13,0,0,0,57.79,55c-.19-2.63-3.71-3.56-4.93-1.39A2.46,2.46,0,0,0,52,56.36a3.79,3.79,0,0,1,.21.65c-.05,1.17,0,2.36,0,3.5,0,1.58,0,3.16-.07,4.73-.08.53-.16,1.05-.26,1.58a2.71,2.71,0,0,0,1.79,3.24l0,1a41.76,41.76,0,0,0-5.15,5.15,16.21,16.21,0,0,0-3.61,6,1,1,0,0,0,1.53,1,.47.47,0,0,0,.87.24,33.26,33.26,0,0,1,6.28-7.69v.58a.93.93,0,0,0-.49.27,28.61,28.61,0,0,0-4.84,6.28c-.58,1.06,1,2,1.61,1a18.84,18.84,0,0,1,2.11-3.32c.47-.55,1-1.08,1.5-1.61-.49,1.36-.94,2.73-1.35,4.12a.47.47,0,0,0,.9.25c.12-.4.25-.8.38-1.2a1.22,1.22,0,0,0,.37,1.18l0,0A1.42,1.42,0,0,0,56,83a6.57,6.57,0,0,0,.29-2.69v-.62a11,11,0,0,1,.28,3.65c-.09.59.82.84.9.25.35-2.44-.7-4.72-.68-7.14a11.1,11.1,0,0,1,2.75,6.71c0,.6,1,.6.93,0a12.26,12.26,0,0,0-4.09-8.47v-.61c2.69,2.21,5.81,5.33,4.72,8.93a.47.47,0,0,0,.9.25C63.3,79,59.47,75.33,56.41,72.88ZM46.74,82.5a16.29,16.29,0,0,1,3.77-5.8,39.41,39.41,0,0,1,3.08-3.12c0,.29,0,.58,0,.87A34.42,34.42,0,0,0,46.74,82.5Z"/><path class="cls-8" d="M54.54,51.77c-3.95.14-3.81,6-3.35,8.67a.62.62,0,0,0,.42.5.74.74,0,0,0,1.08.37,4,4,0,0,1,4.4.08.79.79,0,0,0,1.17-.68C58.57,57.81,59.15,51.61,54.54,51.77Z"/><path class="cls-4" d="M101.4,51A94.37,94.37,0,0,1,72,54c-1-.06-1,1.5,0,1.56a95.6,95.6,0,0,0,29.83-3.08A.78.78,0,0,0,101.4,51Z"/><path class="cls-4" d="M106.43,51.43a8.54,8.54,0,0,1-5.36,1.69.78.78,0,0,0,0,1.56,10,10,0,0,0,6.15-1.9C108,52.19,107.24,50.84,106.43,51.43Z"/><path class="cls-4" d="M107.07,48.61a25.51,25.51,0,0,1-3.54,2.06c-.9.43-.11,1.78.79,1.35A25.4,25.4,0,0,0,107.85,50C108.67,49.39,107.89,48,107.07,48.61Z"/><path class="cls-4" d="M110.56,48.7a.79.79,0,0,0-1.07.28,4.56,4.56,0,0,1-1.27,1.62A.78.78,0,0,0,109,52a6.15,6.15,0,0,0,1.84-2.18A.8.8,0,0,0,110.56,48.7Z"/><path class="cls-4" d="M109.24,46.72a.78.78,0,0,0,0,1.56A.78.78,0,0,0,109.24,46.72Z"/><path class="cls-4" d="M111.84,45.34a.78.78,0,0,0,0,1.56A.78.78,0,0,0,111.84,45.34Z"/><path class="cls-4" d="M110.06,35.51a1.4,1.4,0,0,0,0,2.8A1.4,1.4,0,0,0,110.06,35.51Z"/><path class="cls-4" d="M107.36,33.41C103.59,31,99.17,32,95,31.68c-1.8-.14-1.79,2.66,0,2.81,3.64.29,7.72-.74,11,1.34C107.47,36.81,108.88,34.38,107.36,33.41Z"/><path class="cls-4" d="M90.18,30.75a8.51,8.51,0,0,0-5-.44c-1.77.35-1,3.05.74,2.71a6,6,0,0,1,3.52.43,1.4,1.4,0,0,0,1.73-1A1.43,1.43,0,0,0,90.18,30.75Z"/><path class="cls-4" d="M82.22,29.43H79.91a1.4,1.4,0,1,0,0,2.8h2.31a1.4,1.4,0,1,0,0-2.8Z"/><path class="cls-4" d="M76.43,29.43h-1a1.4,1.4,0,1,0,0,2.8h1a1.4,1.4,0,0,0,0-2.8Z"/><path class="cls-8" d="M58.81,29.64a11.09,11.09,0,0,0-6.17,3c-3.19,1.26-2.74,6.92,1.37,6.92a3.24,3.24,0,0,0,3-1.73,1.82,1.82,0,0,0,.45-.74A12.36,12.36,0,0,1,60,32.56C60.92,31.56,60.4,29.49,58.81,29.64Z"/><path class="cls-4" d="M56.93,30.62c-3,1.05-6.49,2.89-5.82,6.68.25,1.38,2.35.8,2.11-.58-.42-2.35,2.6-3.41,4.29-4C58.83,32.27,58.26,30.16,56.93,30.62Z"/><path class="cls-4" d="M62,30a5.67,5.67,0,0,0-2.13.17,1.09,1.09,0,1,0,.58,2.11A3.64,3.64,0,0,1,62,32.22a1.11,1.11,0,0,0,1.1-1.1A1.13,1.13,0,0,0,62,30Z"/><path class="cls-7" d="M106.85,84.45a25.36,25.36,0,0,0-3,0,4.2,4.2,0,0,1-1.21.11c-.28-.1-.28-.19-.51-.45a3.77,3.77,0,0,0-3-1.51,3.66,3.66,0,0,0-2.72,1.55c-.51.65.12.31-.47.58a5.57,5.57,0,0,1-1.52.11l-3,.22c-1.4.1-1.41,2.29,0,2.18a43.94,43.94,0,0,0,5.13-.38,1.89,1.89,0,0,0,1.13-.55c.49-.51.55-1.3,1.36-1.49,1.33-.32,1.73,1.6,2.91,1.89a6.53,6.53,0,0,0,2-.08,23.41,23.41,0,0,1,3,0C108.26,86.72,108.25,84.54,106.85,84.45Z"/><path class="cls-4" d="M103.67,89.88c-1.14-5.49-2.2-11-3.47-16.46a42.24,42.24,0,0,0-5.35-13.73c-.77-1.18-2.66-.08-1.89,1.1,2.73,4.17,4.16,8.91,5.25,13.73,1.21,5.29,2.25,10.62,3.36,15.94C101.86,91.83,104,91.25,103.67,89.88Z"/><path class="cls-4" d="M105.1,94.67a1,1,0,0,0-.35-.36,1,1,0,0,0-1.55-.61,2.26,2.26,0,0,0,.55,4.17,1.15,1.15,0,0,0,1.24-.5A2.64,2.64,0,0,0,105.1,94.67Z"/><path class="cls-4" d="M116.77,109.19c-2.61-.22-5.5-.54-7.5-2.43a7.41,7.41,0,0,1-2.22-6.28c.14-1.39-2-1.38-2.19,0a9.55,9.55,0,0,0,2.87,7.83c2.44,2.32,5.82,2.79,9,3.06C118.17,111.49,118.16,109.3,116.77,109.19Z"/><path class="cls-4" d="M65.91,121.27a41.69,41.69,0,0,1-11.56-2.07c-2.24-.74-5.65-1.75-7.41-3.77a0,0,0,0,1,0,0l-1.17-2.35c-.58-1.16-2.22-.3-2,.85.77,3.91,5.11,5.59,8.42,6.83a43.52,43.52,0,0,0,13.73,2.71C67.31,123.51,67.31,121.32,65.91,121.27Z"/><path class="cls-4" d="M70.36,121.71a1.09,1.09,0,0,0,0,2.18A1.09,1.09,0,0,0,70.36,121.71Z"/><path class="cls-4" d="M116.59,115.83A32.62,32.62,0,0,1,106,120.45c-1.37.32-.79,2.43.58,2.1a34.1,34.1,0,0,0,11.11-4.84C118.85,116.94,117.76,115,116.59,115.83Z"/><path class="cls-4" d="M101.81,120.74a1.09,1.09,0,0,0,0,2.18A1.09,1.09,0,0,0,101.81,120.74Z"/><path class="cls-4" d="M87.29,122H84.84a1.1,1.1,0,0,0,0,2.19h2.45A1.1,1.1,0,0,0,87.29,122Z"/><path class="cls-10" d="M63.88,83a13.22,13.22,0,0,0-4.16-.43l-5.24,0-7.78-.08a.8.8,0,0,0-.42-.17l-.94-.13c-.27,0-.53-.1-.8-.16a.79.79,0,0,0-1,.72,1.11,1.11,0,0,0,.74,1.9l3,0a1.08,1.08,0,0,0,1,1.56h2.26a1.08,1.08,0,0,0,1-1.51l2.31,0,4.35,0a15.61,15.61,0,0,1-2.07.18,1.09,1.09,0,0,0,0,2.18,17,17,0,0,0,8-2.11A1.1,1.1,0,0,0,63.88,83Z"/><path class="cls-7" d="M102.29,64.37c0,2-3.08,4.13-4.79,2.75-.35-.28-1-.35-1.23.16-.6,1.36-2.83,2.35-3.13.11A.79.79,0,0,0,91.83,67a1.58,1.58,0,0,1-2.44.23.78.78,0,0,0-1.1,1.1,3.18,3.18,0,0,0,3.71.57c1,1.89,3.88,1.56,5.21-.18a3.64,3.64,0,0,0,3.7-.12c1.42-.87,2.91-2.54,2.94-4.27A.78.78,0,0,0,102.29,64.37Z"/><path class="cls-9" d="M97.3,97.34a22.89,22.89,0,0,0-.39,3.09c-.08,1.2,1.8,1.19,1.87,0a18.72,18.72,0,0,1,.33-2.59C99.34,96.66,97.54,96.16,97.3,97.34Z"/><path class="cls-9" d="M96,102.86c-.15,1.42-.26,2.84-.32,4.26-.06,1.21,1.81,1.2,1.87,0,.07-1.42.17-2.84.32-4.26C98,101.67,96.1,101.68,96,102.86Z"/><path class="cls-9" d="M99.33,101v2.3a.94.94,0,0,0,1.87,0V101A.94.94,0,0,0,99.33,101Z"/><path class="cls-9" d="M89.61,108a19,19,0,0,1-1.3,5.49c-.44,1.12,1.37,1.6,1.8.49a20.23,20.23,0,0,0,1.37-6C91.58,106.8,89.7,106.81,89.61,108Z"/><path class="cls-9" d="M88.89,107.87a1,1,0,0,0-.28-.66.91.91,0,0,0-.66-.28,1,1,0,0,0-.93.94v0a.94.94,0,0,0,0,1.32,1,1,0,0,0,1.32,0A1.72,1.72,0,0,0,88.89,107.87Z"/><path class="cls-9" d="M86.2,110.81a5.34,5.34,0,0,1-.9,1.47l-1.09,1.57c-.69,1,.93,1.93,1.62.94L87.06,113a5.85,5.85,0,0,0,1-1.71A.94.94,0,0,0,86.2,110.81Z"/><path class="cls-9" d="M82.45,111.21a19.17,19.17,0,0,1-2.28,3.08c-.81.89.51,2.22,1.32,1.33a22.23,22.23,0,0,0,2.58-3.46A.94.94,0,0,0,82.45,111.21Z"/><path class="cls-9" d="M98.65,92.29a1,1,0,0,0-.94.94c0,.43-.09.86-.14,1.29a.94.94,0,1,0,1.87,0c0-.43.1-.86.14-1.29A.94.94,0,0,0,98.65,92.29Z"/><path class="cls-9" d="M97.55,89.26a.94.94,0,0,0,0,1.87A.94.94,0,0,0,97.55,89.26Z"/><path class="cls-9" d="M104.17,43c-3.31,4.12-9.15,4-13.88,5.2-2.53.63-1.46,4.54,1.08,3.91,5.47-1.34,11.83-1.48,15.67-6.24C108.66,43.8,105.81,40.91,104.17,43Z"/><path class="cls-9" d="M61.9,49.85c-3-.17-6.84-1.48-8.23-4.36-1.14-2.34-4.64-.29-3.5,2,2,4.18,7.38,6.11,11.73,6.37C64.51,54.06,64.5,50,61.9,49.85Z"/><path class="cls-9" d="M67.12,48.41a13.19,13.19,0,0,1-2.79-.51.93.93,0,0,0-.5,1.8,15.23,15.23,0,0,0,3.29.58C68.33,50.36,68.32,48.49,67.12,48.41Z"/><path class="cls-9" d="M68.28,50.71h-3a.94.94,0,0,0,0,1.87h3A.94.94,0,0,0,68.28,50.71Z"/><path class="cls-9" d="M70.92,48.81h-1.4a.94.94,0,1,0,0,1.87h1.4a.94.94,0,1,0,0-1.87Z"/><path class="cls-9" d="M74.81,51.28a14.76,14.76,0,0,1-3.87-.19c-1.18-.23-1.68,1.58-.5,1.8a16,16,0,0,0,4.37.26C76,53.05,76,51.18,74.81,51.28Z"/><path class="cls-9" d="M82.07,51.39a8.87,8.87,0,0,1-3.87-.08c-1.17-.28-1.67,1.52-.5,1.81a11.43,11.43,0,0,0,4.87.08C83.75,53,83.25,51.15,82.07,51.39Z"/><path class="cls-9" d="M84.06,49.06H82.65a.94.94,0,0,0,0,1.87h1.41A.94.94,0,0,0,85,50,1,1,0,0,0,84.06,49.06Z"/><path class="cls-9" d="M85.79,51.37H85a.94.94,0,1,0,0,1.87h.82a.94.94,0,1,0,0-1.87Z"/><path class="cls-9" d="M87.69,49.14H87a.94.94,0,0,0-.93.94A1,1,0,0,0,87,51h.66a.94.94,0,1,0,0-1.87Z"/><path class="cls-9" d="M110.13,41.75a10.94,10.94,0,0,1-2.24,2.6c-.93.78.4,2.09,1.32,1.32a11.88,11.88,0,0,0,2.53-3C112.37,41.66,110.75,40.72,110.13,41.75Z"/><path class="cls-9" d="M109.66,39.46a1,1,0,0,0-1.28.33l-.52.93a.93.93,0,1,0,1.61.94c.18-.31.35-.62.53-.92A1,1,0,0,0,109.66,39.46Z"/><path class="cls-9" d="M69.34,46.37a2.24,2.24,0,0,1-1.49-.59c-.88-.82-2.21.5-1.32,1.32a4.21,4.21,0,0,0,2.81,1.14A.94.94,0,0,0,69.34,46.37Z"/><path class="cls-9" d="M62.15,46.88l-1.77-.49a.93.93,0,0,0-.49,1.8l1.76.49A.93.93,0,0,0,62.15,46.88Z"/><path class="cls-9" d="M57.24,44.69a.94.94,0,0,0,0,1.88A.94.94,0,0,0,57.24,44.69Z"/><path class="cls-9" d="M78.22,58c-1.84.08-3.68.09-5.51,0a.94.94,0,0,0,0,1.88c1.83,0,3.67,0,5.51,0C79.42,59.79,79.42,57.92,78.22,58Z"/><path class="cls-9" d="M83.73,57.39a8.61,8.61,0,0,1-2.63.24c-1.2-.08-1.2,1.8,0,1.87a10.35,10.35,0,0,0,3.13-.31A.93.93,0,0,0,83.73,57.39Z"/><path class="cls-9" d="M81.74,60.68A.94.94,0,0,0,80.59,60a5,5,0,0,1-1.72.23.94.94,0,0,0-.94.93,1,1,0,0,0,.94.94,6.35,6.35,0,0,0,2.21-.3A1,1,0,0,0,81.74,60.68Z"/><path class="cls-9" d="M89.42,56.86a3.25,3.25,0,0,1-2.42.36c-1.17-.27-1.67,1.54-.5,1.81a5.26,5.26,0,0,0,3.86-.56A.93.93,0,0,0,89.42,56.86Z"/><path class="cls-9" d="M84.62,62.65A.94.94,0,0,0,83.47,62l-.24.07-.14,0a3.37,3.37,0,0,1-.55,0,.92.92,0,0,0-.93.93,1,1,0,0,0,.93.94A3.15,3.15,0,0,0,84,63.8,1,1,0,0,0,84.62,62.65Z"/><path class="cls-9" d="M86.3,63.31a.94.94,0,0,0,0,1.87A.94.94,0,0,0,86.3,63.31Z"/><path class="cls-9" d="M93,77.8a25.27,25.27,0,0,1-.41,3.36c-.22,1.18,1.59,1.68,1.81.5a29.48,29.48,0,0,0,.47-3.86C95,76.6,93.08,76.6,93,77.8Z"/><path class="cls-9" d="M94.44,74.82h0c0-.07,0-.14-.07-.21s0-.12,0-.18,0-.3,0,0a1,1,0,0,0-.27-.66,1,1,0,0,0-.66-.28c-.46,0-1,.42-.94.94a4.43,4.43,0,0,0,.37,1.35.93.93,0,0,0,.56.43.93.93,0,0,0,1.06-1.36Z"/><path class="cls-9" d="M78.35,114.23a.92.92,0,0,0-1.32,0,3.73,3.73,0,0,1-1.54,1.18.94.94,0,0,0-.33,1.28,1,1,0,0,0,1.28.34,4.94,4.94,0,0,0,1.91-1.48A1,1,0,0,0,78.35,114.23Z"/><path class="cls-9" d="M72.91,116a.94.94,0,0,0,0,1.87A.94.94,0,0,0,72.91,116Z"/><path class="cls-9" d="M113.29,103.06c-1.77-1-3.11-1.86-3.88-3.79-.66-1.64-1.21-3.33-1.78-5-.38-1.13-2.19-.65-1.81.5a47.46,47.46,0,0,0,2.3,6.23,9.17,9.17,0,0,0,4.22,3.68C113.4,105.24,114.35,103.63,113.29,103.06Z"/><path class="cls-9" d="M113.7,106.09a4.21,4.21,0,0,1-2.29-1.1c-.88-.82-2.21.5-1.33,1.33a6.09,6.09,0,0,0,3.12,1.58.94.94,0,0,0,.5-1.81Z"/><path class="cls-10" d="M67.63,77.77a4.18,4.18,0,0,0-2-.29.94.94,0,0,0,0,1.87,2.8,2.8,0,0,1,1.51.23.94.94,0,0,0,1.15-.66A1,1,0,0,0,67.63,77.77Z"/><path class="cls-10" d="M73.05,79.14l-2.25-.8a.94.94,0,0,0-1.15.66,1,1,0,0,0,.65,1.15l2.25.79a.93.93,0,1,0,.5-1.8Z"/><path class="cls-10" d="M68.27,80.36l-1.38-.14a.94.94,0,0,0-.94.93,1,1,0,0,0,.94.94l1.38.14a.92.92,0,0,0,.93-.93A1,1,0,0,0,68.27,80.36Z"/><path class="cls-10" d="M64.24,80a.94.94,0,0,0,0,1.87A.94.94,0,0,0,64.24,80Z"/><path class="cls-10" d="M47.87,76.71a7.32,7.32,0,0,0-3.35.68.93.93,0,0,0-.33,1.28,1,1,0,0,0,1.28.33,5.35,5.35,0,0,1,2.4-.42C49.08,78.63,49.08,76.76,47.87,76.71Z"/><path class="cls-10" d="M43.11,78.14A1,1,0,0,0,42,77.49a4.46,4.46,0,0,0-1.61.62.93.93,0,0,0,.95,1.61,3.3,3.3,0,0,1,.32-.18l.12-.06h0a3.9,3.9,0,0,1,.67-.18A.94.94,0,0,0,43.11,78.14Z"/><path class="cls-10" d="M43.21,74.7a.94.94,0,0,0,0,1.87A.94.94,0,0,0,43.21,74.7Z"/><path class="cls-10" d="M60.84,80a11.49,11.49,0,0,0-3.65-.27c-1.19.11-1.2,2,0,1.88a9.52,9.52,0,0,1,3.15.2C61.51,82.1,62,80.29,60.84,80Z"/><path class="cls-10" d="M63.23,77.1a.94.94,0,0,0,0,1.87A.94.94,0,0,0,63.23,77.1Z"/><path class="cls-10" d="M70,75.46a.94.94,0,0,0,0,1.87A.94.94,0,0,0,70,75.46Z"/><path class="cls-10" d="M64.62,73.44a.94.94,0,0,0,0,1.88A.94.94,0,0,0,64.62,73.44Z"/><path class="cls-10" d="M61.47,74.45a.94.94,0,0,0,0,1.87A.94.94,0,0,0,61.47,74.45Z"/><path class="cls-10" d="M77.7,78.2a5.69,5.69,0,0,0-3.14-.85.94.94,0,0,0,0,1.87,3.78,3.78,0,0,1,2.19.6C77.77,80.46,78.72,78.84,77.7,78.2Z"/><path class="cls-10" d="M76.73,80.65a2.38,2.38,0,0,0-.62-.43,2.91,2.91,0,0,0-.92-.24.91.91,0,0,0-.66.27,1,1,0,0,0-.27.66,1,1,0,0,0,.27.67,1.08,1.08,0,0,0,.66.27c-.3,0,0,0,0,0h0l.12.06,0,0h0a1,1,0,0,0,1.32,0A.94.94,0,0,0,76.73,80.65Z"/><path class="cls-10" d="M37.42,77.85a.94.94,0,0,0,0,1.87A.94.94,0,0,0,37.42,77.85Z"/><path class="cls-10" d="M46,79.51a6.19,6.19,0,0,0-5.38,1.6c-.88.83.45,2.15,1.32,1.32a4.42,4.42,0,0,1,1.36-.86l.16,0A6.62,6.62,0,0,0,46,81.31C46.83,81.06,47,79.67,46,79.51Z"/><path class="cls-4" d="M48.94,75.77a22.22,22.22,0,0,0-2.21,2.54,7,7,0,0,0-1.5,2.82c-.15,1,1.35,1.4,1.5.41a6.13,6.13,0,0,1,1.35-2.44,19.79,19.79,0,0,1,2-2.23A.78.78,0,0,0,48.94,75.77Z"/><path class="cls-4" d="M57.38,81.14a.31.31,0,0,0,0-.24,1.26,1.26,0,0,0-.14-.4c0-.31,0-.62,0-.93a.31.31,0,0,0-.62,0v.07c-.25-.09-.57.17-.38.43a3,3,0,0,1,.24.38,1.41,1.41,0,0,0,.15,1.18,1,1,0,0,0,.26.58.31.31,0,0,0,.53-.22A3.44,3.44,0,0,0,57.38,81.14Z"/><path class="cls-4" d="M60.34,81.54a3.31,3.31,0,0,0-.29-.67,1.59,1.59,0,0,1-.15-.29,9.75,9.75,0,0,0-.31-1.08.24.24,0,0,0-.18-.13h0a.31.31,0,0,0-.6.16c.17.72.34,1.43.52,2.14.07.32.14.85.61.76S60.42,81.87,60.34,81.54Z"/><path class="cls-4" d="M61.77,81.14l-.06-.89a.32.32,0,0,0-.63,0v.49a.29.29,0,0,0,.06.17c0,.35,0,.71.08,1.06a.31.31,0,0,0,.61.08l.16-.54A.29.29,0,0,0,61.77,81.14Z"/><path class="cls-3" d="M84.65,80.16a43.19,43.19,0,0,1-9.51,2.64c-1.78.18-1.8,3,0,2.8A45.36,45.36,0,0,0,85.4,82.86C87.09,82.27,86.36,79.56,84.65,80.16Z"/><path class="cls-3" d="M70.26,83.65a1.4,1.4,0,0,0,0,2.8A1.4,1.4,0,0,0,70.26,83.65Z"/><path class="cls-3" d="M41.05,82.07q-3.63-1-7.15-2.28c-1.7-.64-2.43,2.08-.75,2.7,2.35.88,4.73,1.64,7.16,2.29A1.41,1.41,0,0,0,41.05,82.07Z"/><path class="cls-3" d="M44.64,82.7a1.41,1.41,0,0,0,0,2.81A1.41,1.41,0,0,0,44.64,82.7Z"/><path class="cls-3" d="M39,85.71a5.28,5.28,0,0,0-3.43-1.3,1.09,1.09,0,0,0,0,2.18,2.91,2.91,0,0,1,1.88.66,1.12,1.12,0,0,0,1.55,0A1.1,1.1,0,0,0,39,85.71Z"/><path class="cls-3" d="M37.31,88.24a8.2,8.2,0,0,1-.76-.43l-.36-.24-.08-.06-.12-.1a1.13,1.13,0,0,0-1.55,0,1.1,1.1,0,0,0,0,1.54,8.62,8.62,0,0,0,1.77,1.17,1.09,1.09,0,1,0,1.1-1.88Z"/><path class="cls-3" d="M36,91a.94.94,0,0,0,0,1.87A.94.94,0,0,0,36,91Z"/><path class="cls-3" d="M85.13,84.51a7.52,7.52,0,0,1-5.9,1.62C78,86,78.05,87.85,79.23,88a9.29,9.29,0,0,0,7.23-2.17C87.38,85.06,86.05,83.74,85.13,84.51Z"/><path class="cls-3" d="M85.17,89.24c-1.84,2.35-4.85,2.1-7.52,1.85-1.2-.11-1.2,1.77,0,1.88,3.14.28,6.71.32,8.85-2.4C87.23,89.63,85.92,88.29,85.17,89.24Z"/><path class="cls-3" d="M83.48,93.84a7.38,7.38,0,0,1-2.84.67c-1.2,0-1.2,1.92,0,1.88l.35,0c-.36.34-.74.65-1.13,1h0A.87.87,0,0,0,79,98a22,22,0,0,1-2.14,1.34.82.82,0,0,0-.47.84.73.73,0,0,0-.46-.16H75a.78.78,0,0,0,0,1.56h.94a.79.79,0,0,0,.78-.78v0a1,1,0,0,0,.87.28c.69.24,1.08.22,1.19-.06a1.07,1.07,0,0,0,.52.36l-.14.2a.88.88,0,0,0-.43,0,28.14,28.14,0,0,1-6.78.58c-1.27-.21-2.56-.31-3.87-.4a.86.86,0,0,0-.87.67h-2.9a.78.78,0,0,0,0,1.56h3.77a.73.73,0,0,0,.58-.26c.93.13,1.86.21,2.79.26l-6,1.47a.94.94,0,0,0,.25,1.84l5.56.26-.73.2-10.43.14A1,1,0,0,0,59.2,109H57.06a.78.78,0,0,0,0,1.56h2.36a.73.73,0,0,0,.75-.79,24.39,24.39,0,0,0,7.8.33,29.05,29.05,0,0,1-19.11-1c-1.12-.46-1.6,1.35-.5,1.8a30.73,30.73,0,0,0,26.1-1.48.91.91,0,0,0,.35-1.21c.43-.19.86-.39,1.29-.61a.86.86,0,0,0,.33-.29l.15-.1A24.28,24.28,0,0,0,83.9,96a1,1,0,0,0,0-.28l.48-.21C85.51,95,84.56,93.34,83.48,93.84ZM72.56,105.67l-.37,0,.54-.13Zm7.7-6a1.42,1.42,0,0,0-.22-.2l.46-.33h0C80.45,99.37,80.36,99.55,80.26,99.72Z"/><path class="cls-3" d="M78.6,95.75H74.51a.78.78,0,0,0,0,1.56H78.6A.78.78,0,0,0,78.6,95.75Z"/><path class="cls-3" d="M76.4,97.63H74.2a.78.78,0,0,0,0,1.56h2.2A.78.78,0,0,0,76.4,97.63Z"/><path class="cls-3" d="M63.82,104.55H62.4a.78.78,0,1,0,0,1.56h1.42a.78.78,0,0,0,0-1.56Z"/><path class="cls-3" d="M61,105.65H59.57a.78.78,0,1,0,0,1.56H61a.78.78,0,0,0,0-1.56Z"/><path class="cls-3" d="M56.11,106a.78.78,0,0,0,0,1.56A.78.78,0,0,0,56.11,106Z"/><path class="cls-3" d="M55.49,107.54H53.28a.78.78,0,0,0,0,1.56h2.21A.78.78,0,0,0,55.49,107.54Z"/><path class="cls-5" d="M37.47,70a25.36,25.36,0,0,1-5.57,1.31,13.51,13.51,0,0,0-4.62,1c-2.32,1.13-1.77,3.51-.73,5.37.63,1.12,2.35.11,1.73-1-1.87-3.35,2.77-3.18,4.65-3.41A25.29,25.29,0,0,0,38,71.94C39.22,71.53,38.7,69.6,37.47,70Z"/><path class="cls-5" d="M29.57,77.84a1,1,0,0,0,0,2A1,1,0,0,0,29.57,77.84Z"/><path class="cls-5" d="M37.5,80.6a53.94,53.94,0,0,0-5.32-1.23c-.63-.11-.9.85-.27,1,1.8.33,3.57.73,5.32,1.23A.5.5,0,0,0,37.5,80.6Z"/><path class="cls-5" d="M73.16,68.44c-2.56-.59-5.47-1.71-8.13-1.5-.63,0-.64,1,0,1,2.55-.2,5.39.89,7.87,1.47C73.52,69.55,73.79,68.59,73.16,68.44Z"/><path class="cls-5" d="M78.74,70.22l-3.2-1a.49.49,0,0,0-.23-.11l-.24,0a.5.5,0,0,0-.27,1l3.67,1.16C79.09,71.38,79.35,70.41,78.74,70.22Z"/><path class="cls-5" d="M82.25,72a8.33,8.33,0,0,0-1.54-.64c-.61-.2-.88.77-.26,1a7.32,7.32,0,0,1,1.29.54C82.31,73.12,82.81,72.26,82.25,72Z"/><path class="cls-5" d="M83.9,73a.5.5,0,0,0,0,1A.5.5,0,0,0,83.9,73Z"/><path class="cls-5" d="M34,90.45a22.61,22.61,0,0,0-3.77-8.54c-.37-.52-1.24,0-.86.5A22.1,22.1,0,0,1,33,90.72C33.16,91.35,34.12,91.08,34,90.45Z"/><path class="cls-5" d="M35.41,94.21,35,93.11a.46.46,0,0,0-.47-.4.47.47,0,0,0-.29.11.4.4,0,0,0-.21.54l.4,1.11C34.67,95.07,35.63,94.81,35.41,94.21Z"/><path class="cls-5" d="M36.44,96.47l-.56-.7c-.4-.5-1.1.21-.7.71l.55.7C36.13,97.68,36.84,97,36.44,96.47Z"/><path class="cls-5" d="M87.35,73.8c-1-.82-2.41.59-1.42,1.42a4.8,4.8,0,0,1,1.82,3.69,1,1,0,0,0,2,0A6.8,6.8,0,0,0,87.35,73.8Z"/><path class="cls-5" d="M87.78,82.69v.61a1,1,0,0,0,2,0v-.61A1,1,0,0,0,87.78,82.69Z"/><path class="cls-5" d="M43.88,87.1c-6.44,0-6.45,10,0,10S50.32,87.1,43.88,87.1Z"/><path class="cls-7" d="M100.1,125.68A2.56,2.56,0,0,0,97,123.93a24.77,24.77,0,0,1-6.38.15,2.52,2.52,0,0,0-2.5,2.5,2.55,2.55,0,0,0,2.5,2.5,29.29,29.29,0,0,0,7.71-.33A2.52,2.52,0,0,0,100.1,125.68Z"/><path class="cls-7" d="M118.19,118c-3.83,2.14-9.66,6.41-14.23,5.67-3.15-.5-4.5,4.31-1.33,4.82,6.43,1,12.69-3.15,18.09-6.17C123.53,120.74,121,116.42,118.19,118Z"/><path class="cls-7" d="M46.46,118.73a13.65,13.65,0,0,1-4.06-3.27A2.5,2.5,0,1,0,38.86,119a18,18,0,0,0,5.08,4,2.5,2.5,0,0,0,2.52-4.32Z"/><path class="cls-9" d="M64.64,126.32c-7.8-2.39-17.83-1.53-23.27-8.7-.77-1-2.5,0-1.73,1,5.93,7.81,15.92,7,24.47,9.62C65.34,128.63,65.87,126.7,64.64,126.32Z"/><path class="cls-9" d="M122.93,117.06c-.41-1.22-2.35-.69-1.93.53,2.47,7.27-23.79,10-27.53,10-8.68-.06-17.22-1.59-25.91-.81-1.28.12-1.29,2.12,0,2,12.07-1.08,24.13,2.16,36.15-.07C108.56,127.8,125.65,125.06,122.93,117.06Z"/></g></g></svg>