<svg xmlns="http://www.w3.org/2000/svg" viewBox="0 0 165.31 142.46"><defs><style>.cls-1{fill:#7ebfe8;}.cls-2{fill:#21519e;}.cls-3{fill:#21509d;}.cls-4,.cls-7{fill:#fff;}.cls-5{fill:#24326b;}.cls-6{fill:#7996cd;}.cls-7{font-size:5px;font-family:Helvetica-Bold, Helvetica;font-weight:700;}.cls-8{letter-spacing:0.03em;}.cls-9{letter-spacing:0.04em;}.cls-10{letter-spacing:0.03em;}.cls-11{letter-spacing:0.04em;}.cls-12{letter-spacing:0.03em;}.cls-13{letter-spacing:0.03em;}.cls-14{letter-spacing:0.03em;}.cls-15{fill:none;stroke:#24326b;stroke-miterlimit:10;}.cls-16{fill:#267dc1;}</style></defs><title>bart-icon-selectedAsset 23</title><g id="Layer_2" data-name="Layer 2"><g id="Layer_1-2" data-name="Layer 1"><rect class="cls-1" x="1.1" y="1" width="163.21" height="140.46" rx="8.57"/><path class="cls-2" d="M155.75,2a7.57,7.57,0,0,1,7.56,7.57V132.89a7.58,7.58,0,0,1-7.56,7.57H9.66a7.58,7.58,0,0,1-7.56-7.57V9.57A7.57,7.57,0,0,1,9.66,2H155.75m0-2H9.66A9.56,9.56,0,0,0,.1,9.57V132.89a9.57,9.57,0,0,0,9.56,9.57H155.75a9.57,9.57,0,0,0,9.56-9.57V9.57A9.56,9.56,0,0,0,155.75,0Z"/><path class="cls-3" d="M9.89,0H156.35a9,9,0,0,1,9,9V19.63a0,0,0,0,1,0,0H.1a0,0,0,0,1,0,0V9.79A9.79,9.79,0,0,1,9.89,0Z"/><path class="cls-4" d="M9.16,6.44h3.42a2.24,2.24,0,0,1,2,.83,1.89,1.89,0,0,1,.35,1.12,1.81,1.81,0,0,1-.43,1.23,2.14,2.14,0,0,1-.63.46,2.83,2.83,0,0,1,.91.52A1.9,1.9,0,0,1,15.29,12a2.19,2.19,0,0,1-.48,1.38,2.72,2.72,0,0,1-2.29.93H9.16Zm3,3.33a2.53,2.53,0,0,0,1.06-.18,1.09,1.09,0,0,0,.6-1.07,1,1,0,0,0-.64-1,2.87,2.87,0,0,0-1.06-.15H10.21V9.77Zm.36,3.65A1.64,1.64,0,0,0,14,12.85a1.41,1.41,0,0,0,.27-.87,1.17,1.17,0,0,0-.78-1.18,3,3,0,0,0-1.09-.16H10.21v2.78Z"/><path class="cls-4" d="M18.83,6.44H20l2.86,7.89H21.73L20.91,12h-3.1L17,14.33H15.86Zm1.77,4.65L19.39,7.61l-1.26,3.48Z"/><path class="cls-4" d="M24,6.44h3.59A3.6,3.6,0,0,1,29,6.7a1.87,1.87,0,0,1,1.09,1.86,2,2,0,0,1-.29,1.16,2.08,2.08,0,0,1-.82.73,1.72,1.72,0,0,1,.7.49,1.88,1.88,0,0,1,.26,1L30,13a3.12,3.12,0,0,0,.08.67.65.65,0,0,0,.34.48v.18H29.12a1.25,1.25,0,0,1-.08-.27,4,4,0,0,1-.06-.62l-.06-1.31a1.11,1.11,0,0,0-.56-1,2.18,2.18,0,0,0-.93-.15H25.06v3.39H24Zm3.48,3.61a2,2,0,0,0,1.15-.3,1.22,1.22,0,0,0,.43-1.08,1.16,1.16,0,0,0-.6-1.15,1.84,1.84,0,0,0-.85-.16H25.06v2.69Z"/><path class="cls-4" d="M37.35,6.44v.94H34.69v7H33.61V7.38H31V6.44Z"/><path class="cls-4" d="M46.74,6.44v.94H44.08v7H43V7.38H40.34V6.44Z"/><path class="cls-4" d="M48,6.44H49v7.89H48Z"/><path class="cls-4" d="M56.36,7a2.85,2.85,0,0,1,.91,1.8h-1a2.2,2.2,0,0,0-.7-1.21,2.14,2.14,0,0,0-1.46-.45A2.35,2.35,0,0,0,52.22,8a3.87,3.87,0,0,0-.7,2.52,3.68,3.68,0,0,0,.64,2.25,2.2,2.2,0,0,0,1.89.86,2,2,0,0,0,1.77-.91,3.32,3.32,0,0,0,.48-1.26h1a3.54,3.54,0,0,1-.91,2.09,3.23,3.23,0,0,1-2.51,1,3.28,3.28,0,0,1-2.28-.84,4.35,4.35,0,0,1-1.22-3.4,4.36,4.36,0,0,1,.92-2.86,3.31,3.31,0,0,1,2.72-1.22A3.21,3.21,0,0,1,56.36,7Z"/><path class="cls-4" d="M58.72,6.44h1V10.3l4-3.86h1.5L61.84,9.62l3.44,4.71h-1.4l-2.83-4-1.29,1.22v2.75h-1Z"/><path class="cls-4" d="M66.16,6.44h5.73v1H67.2V9.8h4.33v.91H67.2v2.68H72v.94H66.16Z"/><path class="cls-4" d="M79.13,6.44v.94H76.47v7H75.39V7.38H72.74V6.44Z"/><path class="cls-4" d="M80.36,6.44h1.08v7.89H80.36Z"/><path class="cls-4" d="M83.17,6.44h1.26l3.94,6.37V6.44h1v7.89h-1.2L84.19,8v6.37h-1Z"/><path class="cls-4" d="M96.37,6.66a2.86,2.86,0,0,1,1.42,2.17H96.73a1.92,1.92,0,0,0-.79-1.26,2.64,2.64,0,0,0-1.49-.4A2.33,2.33,0,0,0,92.64,8a3.55,3.55,0,0,0-.74,2.45,4,4,0,0,0,.61,2.29,2.23,2.23,0,0,0,2,.88A2.52,2.52,0,0,0,96.22,13a2.63,2.63,0,0,0,.7-2H94.45v-.88h3.47v4.22h-.69l-.26-1a3.87,3.87,0,0,1-1,.83,3.42,3.42,0,0,1-1.76.4,3.37,3.37,0,0,1-2.37-.91,4.36,4.36,0,0,1-1.08-3.13,4.5,4.5,0,0,1,1.06-3.15,3.36,3.36,0,0,1,2.6-1.12A4,4,0,0,1,96.37,6.66Z"/><path class="cls-4" d="M102.73,6.44h1V10.3l4-3.86h1.49l-3.37,3.18,3.44,4.71h-1.4l-2.82-4-1.29,1.22v2.75h-1Z"/><path class="cls-4" d="M110.31,6.44h1.08v7.89h-1.08Z"/><path class="cls-4" d="M119.62,7.57a4.35,4.35,0,0,1,.78,2.68,4.67,4.67,0,0,1-.89,2.93,3.56,3.56,0,0,1-3,1.38,3.61,3.61,0,0,1-2.87-1.2,4.56,4.56,0,0,1-.93-2.94,4.69,4.69,0,0,1,.8-2.74,3.45,3.45,0,0,1,3-1.46A3.6,3.6,0,0,1,119.62,7.57Zm-.94,5a4.3,4.3,0,0,0,.63-2.33A3.32,3.32,0,0,0,118.58,8a2.5,2.5,0,0,0-2-.85,2.57,2.57,0,0,0-2,.85,3.56,3.56,0,0,0-.77,2.48,3.64,3.64,0,0,0,.66,2.21,2.49,2.49,0,0,0,2.15.9A2.22,2.22,0,0,0,118.68,12.59Z"/><path class="cls-4" d="M122.38,11.78a2.16,2.16,0,0,0,.3,1.09,2,2,0,0,0,1.81.79,3,3,0,0,0,1.05-.18,1.19,1.19,0,0,0,.92-1.19,1.05,1.05,0,0,0-.39-.92,4,4,0,0,0-1.23-.46l-1-.24a4.6,4.6,0,0,1-1.44-.53,1.67,1.67,0,0,1-.73-1.47,2.31,2.31,0,0,1,.72-1.75,2.85,2.85,0,0,1,2-.68,3.45,3.45,0,0,1,2.05.6,2.19,2.19,0,0,1,.84,1.91h-1a2,2,0,0,0-.33-1,1.87,1.87,0,0,0-1.59-.62,1.8,1.8,0,0,0-1.3.4,1.25,1.25,0,0,0-.4.92.91.91,0,0,0,.47.85,6.22,6.22,0,0,0,1.39.43l1.07.26a3.21,3.21,0,0,1,1.2.49,1.92,1.92,0,0,1,.73,1.61,2,2,0,0,1-.93,1.88,4.14,4.14,0,0,1-2.16.56,3.19,3.19,0,0,1-2.25-.75,2.6,2.6,0,0,1-.8-2Z"/><path class="cls-4" d="M129,6.44h1.05V10.3L134,6.44h1.5l-3.37,3.18,3.44,4.71h-1.4l-2.83-4-1.28,1.22v2.75H129Z"/><rect class="cls-5" y="37.39" width="164.31" height="12.77"/><rect class="cls-3" x="4.87" y="65.18" width="30.2" height="24.36" rx="2.91"/><rect class="cls-3" x="37.18" y="65.18" width="68.41" height="24.36" rx="3.43"/><rect class="cls-6" x="107.88" y="65.18" width="52.95" height="24.36" rx="4.61"/><path class="cls-4" d="M19.21,68.63l-.16-.15a2.44,2.44,0,0,0-3.45,0l-7.39,7.4a2.43,2.43,0,0,0,0,3.45l7.5,7.5a2.44,2.44,0,0,0,3.45,0l.22-.22a2.44,2.44,0,0,0,0-3.45l-3.11-3.1h14.5a2.44,2.44,0,0,0,2.44-2.44h0a2.44,2.44,0,0,0-2.44-2.44H16l3.18-3.07A2.44,2.44,0,0,0,19.21,68.63Z"/><text class="cls-7" transform="translate(46.51 86.43) rotate(-90)">INSERT<tspan class="cls-8" x="3.23" y="6">T</tspan><tspan class="cls-9" x="6.42" y="6">H</tspan><tspan class="cls-10" x="10.21" y="6">I</tspan><tspan x="11.77" y="6">S </tspan><tspan class="cls-11" x="-1.15" y="12">S</tspan><tspan class="cls-12" x="2.38" y="12">I</tspan><tspan class="cls-13" x="3.92" y="12">D</tspan><tspan x="7.68" y="12">E </tspan><tspan class="cls-14" x="12.4" y="12">U</tspan><tspan x="16.15" y="12">P</tspan></text><path class="cls-4" d="M116.45,81.09c.06.71,2.43,1,2.43,1s-.17,2,.25,2.58,1.79.07,1.51-3.08l2.86-2.9L127.19,86s1.36,0,.61-4.9-1.08-5.48-1.08-5.48l3.85-3.59s.69-.73.29-1.4-1.5-.3-1.5-.3l-4,3.25-7.86-.91s-2.26-.25-2.81.61l7.58,3.88-3,3.24S116.36,80,116.45,81.09Z"/><path class="cls-4" d="M146.38,68.27c0,.35,0,.68.06,1h-1v-.91a.5.5,0,0,0-1,0v.91h-3.1a1.25,1.25,0,0,0-1.25,1.25v8.77a4.56,4.56,0,0,0,2,3.79l-3.45,3.45h1.89l2.85-2.85a4.71,4.71,0,0,0,1.3.21H147a5,5,0,0,0,.78-.08l2.72,2.72h1.88l-3.21-3.21a4.58,4.58,0,0,0,2.43-4V70.54a1.25,1.25,0,0,0-1.25-1.25h-2.93c0-.34-.06-.67-.06-1A.5.5,0,0,0,146.38,68.27Zm3.46,12.06a1.19,1.19,0,1,1-1.19-1.18A1.19,1.19,0,0,1,149.84,80.33Zm-5.63-.23a1.29,1.29,0,1,1-1.29-1.3A1.29,1.29,0,0,1,144.21,80.1ZM150,71.92v3.77h-8V71.92ZM147.84,70v1.22h-3.63V70Z"/><line class="cls-15" x1="22.47" y1="116.1" x2="164.31" y2="116.1"/><circle class="cls-4" cx="15.82" cy="116.1" r="3.47"/><path class="cls-16" d="M103.54,90.53l-.35,0-.55-.06C103,89.57,103.25,90.08,103.54,90.53Z"/><path class="cls-3" d="M96.12,76.42a1.77,1.77,0,0,0-.54-1.92,7.61,7.61,0,0,0-6-2.3,5.65,5.65,0,0,0-4.67,3.59c-.64,1.82-.64,4.68.73,6.16s4.09,2.9,6,2.81c2.23-.11,3.91-2.45,4.59-4.36A4.69,4.69,0,0,0,96.12,76.42Z"/><path class="cls-6" d="M83.12,72.88l-.69-.7c-4.12-3-8.54-3.77-13.31-1.72-.92.4-1.22.34-1.18-.77.08-2.15,0-4.31,0-6.46,0-.59,0-.93-.79-.9-1.77.05-3.54,0-5.32,0-.63,0-.77.24-.77.82q0,11.52,0,23.05c0,.63.21.79.8.77,1.44,0,2.87,0,4.31,0,.91,0,2.1.39,1.8-1.36,3.29,2.19,9.4,2.43,14.44-1a7.3,7.3,0,0,0,1.37-1.34,8.19,8.19,0,0,0,1.5-6A8.09,8.09,0,0,0,83.12,72.88ZM74.33,83.15a4.89,4.89,0,0,1-4.86-5.06,4.65,4.65,0,0,1,4.81-4.62,4.71,4.71,0,0,1,5,4.42A5,5,0,0,1,74.33,83.15Z"/><path class="cls-4" d="M102.15,86.08q0-7.6,0-15.2c0-.3.21-.7-.25-.87h0c-1.85,0-3.7,0-5.55,0-.26,0-.68-.15-.75.24-.14.82-.57.44-1,.33-3.88-1-7.68-1.06-11.25,1.12l-.88.52.28.27a3.89,3.89,0,0,1,.28.35,6.38,6.38,0,0,1,.82,1c2.47,4-.77,9.8-1.33,10.77a10.18,10.18,0,0,0,4.43,2l.44.06A11.63,11.63,0,0,0,95,85.92c.29-.19.45-.15.56,0a.15.15,0,0,0-.1.07c0,.66.17,1,1,1,1.79-.09,3.58,0,5.38-.06h0C102.36,86.79,102.15,86.37,102.15,86.08ZM95,79.86A5.32,5.32,0,0,1,91.79,83c-1.82.56-4.51-.2-5.37-1.57-1.47-2.36-1.48-4.79.2-6.41a5,5,0,0,1,7.81.7c.17.27.37.53.54.81a3.52,3.52,0,0,1,.28.58A3.69,3.69,0,0,1,95,79.86Z"/></g></g></svg>