<svg xmlns="http://www.w3.org/2000/svg" viewBox="0 0 86.74 636.58"><defs><style>.cls-1{fill:#7996cd;}</style></defs><title>checkerboardAsset 31</title><g id="Layer_2" data-name="Layer 2"><g id="Layer_1-2" data-name="Layer 1"><rect class="cls-1" width="28.91" height="28.91" transform="translate(28.91 0) rotate(90)"/><rect class="cls-1" x="28.91" y="28.91" width="28.91" height="28.91" transform="translate(86.74 0) rotate(90)"/><rect class="cls-1" x="57.83" y="57.83" width="28.91" height="28.91" transform="translate(144.56 0) rotate(90)"/><rect class="cls-1" x="28.91" y="86.74" width="28.91" height="28.91" transform="translate(144.56 57.83) rotate(90)"/><rect class="cls-1" x="57.83" width="28.91" height="28.91" transform="translate(86.74 -57.83) rotate(90)"/><rect class="cls-1" y="57.83" width="28.91" height="28.91" transform="translate(86.74 57.83) rotate(90)"/><rect class="cls-1" y="115.65" width="28.91" height="28.91" transform="translate(144.56 115.65) rotate(90)"/><rect class="cls-1" x="28.91" y="144.56" width="28.91" height="28.91" transform="translate(202.39 115.65) rotate(90)"/><rect class="cls-1" x="57.83" y="173.48" width="28.91" height="28.91" transform="translate(260.22 115.65) rotate(90)"/><rect class="cls-1" x="28.91" y="202.39" width="28.91" height="28.91" transform="translate(260.22 173.48) rotate(90)"/><rect class="cls-1" x="57.83" y="115.65" width="28.91" height="28.91" transform="translate(202.39 57.83) rotate(90)"/><rect class="cls-1" y="173.48" width="28.91" height="28.91" transform="translate(202.39 173.48) rotate(90)"/><rect class="cls-1" y="231.8" width="28.91" height="28.91" transform="translate(260.71 231.8) rotate(90)"/><rect class="cls-1" x="28.91" y="260.71" width="28.91" height="28.91" transform="translate(318.54 231.8) rotate(90)"/><rect class="cls-1" x="57.83" y="289.62" width="28.91" height="28.91" transform="translate(376.36 231.8) rotate(90)"/><rect class="cls-1" x="28.91" y="318.54" width="28.91" height="28.91" transform="translate(376.36 289.62) rotate(90)"/><rect class="cls-1" x="57.83" y="231.8" width="28.91" height="28.91" transform="translate(318.54 173.97) rotate(90)"/><rect class="cls-1" y="289.62" width="28.91" height="28.91" transform="translate(318.54 289.62) rotate(90)"/><rect class="cls-1" y="347.45" width="28.91" height="28.91" transform="translate(376.36 347.45) rotate(90)"/><rect class="cls-1" x="28.91" y="376.36" width="28.91" height="28.91" transform="translate(434.19 347.45) rotate(90)"/><rect class="cls-1" x="57.83" y="405.28" width="28.91" height="28.91" transform="translate(492.01 347.45) rotate(90)"/><rect class="cls-1" x="57.83" y="347.45" width="28.91" height="28.91" transform="translate(434.19 289.62) rotate(90)"/><rect class="cls-1" y="405.28" width="28.91" height="28.91" transform="translate(434.19 405.28) rotate(90)"/><rect class="cls-1" x="28.91" y="434.19" width="28.91" height="28.91" transform="translate(492.02 405.28) rotate(90)"/><rect class="cls-1" x="57.83" y="463.1" width="28.91" height="28.91" transform="translate(549.84 405.28) rotate(90)"/><rect class="cls-1" x="28.91" y="492.02" width="28.91" height="28.91" transform="translate(549.84 463.1) rotate(90)"/><rect class="cls-1" y="463.1" width="28.91" height="28.91" transform="translate(492.02 463.1) rotate(90)"/><rect class="cls-1" y="520.93" width="28.91" height="28.91" transform="translate(549.84 520.93) rotate(90)"/><rect class="cls-1" x="57.83" y="520.93" width="28.91" height="28.91" transform="translate(607.67 463.1) rotate(90)"/><rect class="cls-1" x="28.91" y="549.84" width="28.91" height="28.91" transform="translate(607.67 520.93) rotate(90)"/><rect class="cls-1" x="57.83" y="578.76" width="28.91" height="28.91" transform="translate(665.49 520.93) rotate(90)"/><rect class="cls-1" x="28.91" y="607.67" width="28.91" height="28.91" transform="translate(665.49 578.76) rotate(90)"/><rect class="cls-1" y="578.76" width="28.91" height="28.91" transform="translate(607.67 578.76) rotate(90)"/></g></g></svg>