<svg xmlns="http://www.w3.org/2000/svg" viewBox="0 0 113.5 63.96"><defs><style>.cls-1{fill:#ef7d72;}</style></defs><title>cryme-titleAsset 13</title><g id="Layer_2" data-name="Layer 2"><g id="Layer_1-2" data-name="Layer 1"><path class="cls-1" d="M18.05,21.73c-1.48,3.65-4.37,5.47-8.7,5.47a8.71,8.71,0,0,1-6.92-2.81A10.32,10.32,0,0,1,0,17.33a10.33,10.33,0,0,1,2.43-7.07A8.71,8.71,0,0,1,9.35,7.45c4.33,0,7.22,1.82,8.7,5.47l-4.22,1.71c-1-2.09-2.55-3.16-4.48-3.16-2.89,0-4.41,2.36-4.41,5.86s1.52,5.85,4.41,5.85c1.93,0,3.45-1.07,4.48-3.16Z"/><path class="cls-1" d="M26.56,26.9H21.85V7.75h4.71v3.12a6.74,6.74,0,0,1,5.66-3.42,7.48,7.48,0,0,1,2.32.38l-.87,4.37a3.79,3.79,0,0,0-2-.54c-3,0-5.13,2.63-5.13,8.44Z"/><path class="cls-1" d="M36.56,7.75h4.75l4.44,12,4.18-12h4.71l-9.88,26.9H40.2l3.31-9Z"/><path class="cls-1" d="M69.2,10.56l-2.82,2.59a3.94,3.94,0,0,0-3.19-1.68,1.6,1.6,0,0,0-1.75,1.6c0,.8.61,1.41,1.83,1.86l1.37.5,1.63.57a13,13,0,0,1,1.37.72,4.21,4.21,0,0,1,1.37,1,4.84,4.84,0,0,1,1.17,3.11,6.1,6.1,0,0,1-1.9,4.52,6.57,6.57,0,0,1-4.9,1.86,7.63,7.63,0,0,1-4.75-1.55A8.94,8.94,0,0,1,55.78,22l3.77-2c.76,2.09,2.05,3.16,3.83,3.16,1.56,0,2.36-.69,2.36-2.06a1.55,1.55,0,0,0-1-1.44,6,6,0,0,0-1.06-.45c-.65-.31-2-.73-2.7-1-2.43-1-3.87-2.43-3.87-5.17a5.26,5.26,0,0,1,1.71-3.95,6.08,6.08,0,0,1,4.4-1.63A7.16,7.16,0,0,1,69.2,10.56Z"/><path class="cls-1" d="M85.27,26.52a7.24,7.24,0,0,1-3.12.68c-4.4,0-7-2.39-7-7.06V11.78h-3v-4h3V3l4.71-3V7.75h5v4h-5v8.28c0,2.28.83,3.12,2.5,3.12a3.88,3.88,0,0,0,1.83-.46Z"/><path class="cls-1" d="M88.77,12.77c.61-3.19,3.46-5.32,7.29-5.32,5.36,0,8.06,2.66,8.06,8V26.9h-3.88l-.49-2.43a7.23,7.23,0,0,1-5.89,2.73,5.44,5.44,0,0,1-5.81-5.81c0-3.8,3.3-6.27,8.16-6.27h3.2v-.83c0-1.87-1.11-2.82-3.35-2.82a3.11,3.11,0,0,0-3.3,2.21ZM95,23.18A4.72,4.72,0,0,0,98,22.08a3.49,3.49,0,0,0,1.37-2.85v-.38H96.25c-2.16,0-3.27.83-3.27,2.47A1.83,1.83,0,0,0,95,23.18Z"/><path class="cls-1" d="M108.79,0h4.71V26.9h-4.71Z"/><path class="cls-1" d="M18.05,50.73c-1.48,3.65-4.37,5.47-8.7,5.47a8.71,8.71,0,0,1-6.92-2.81A10.32,10.32,0,0,1,0,46.33a10.33,10.33,0,0,1,2.43-7.07,8.71,8.71,0,0,1,6.92-2.81c4.33,0,7.22,1.82,8.7,5.47l-4.22,1.71c-1-2.09-2.55-3.16-4.48-3.16-2.89,0-4.41,2.36-4.41,5.86s1.52,5.85,4.41,5.85c1.93,0,3.45-1.07,4.48-3.16Z"/><path class="cls-1" d="M21.85,29h4.71V39.83a6.81,6.81,0,0,1,6.08-3.38c3.69,0,6,2,6,5.77V55.9H33.89v-12q0-3.42-2.85-3.42c-2.43,0-4.48,2.51-4.48,7.34V55.9H21.85Z"/><path class="cls-1" d="M43.43,41.77c.61-3.19,3.46-5.32,7.3-5.32,5.36,0,8.05,2.66,8.05,8V55.9H54.91l-.5-2.43a7.21,7.21,0,0,1-5.88,2.73,5.44,5.44,0,0,1-5.82-5.81c0-3.8,3.31-6.27,8.17-6.27h3.19v-.83c0-1.87-1.1-2.82-3.34-2.82a3.13,3.13,0,0,0-3.31,2.21Zm6.2,10.41a4.72,4.72,0,0,0,3.08-1.1,3.48,3.48,0,0,0,1.36-2.85v-.38H50.92c-2.17,0-3.27.83-3.27,2.47A1.83,1.83,0,0,0,49.63,52.18Z"/><path class="cls-1" d="M63.19,36.75h4.72v3.08a7,7,0,0,1,5.92-3.38c3.54,0,5.89,2,5.89,5.77V55.9H75V43.63c0-2.09-.91-3.16-2.74-3.16-2.43,0-4.36,3-4.36,7.79V55.9H63.19Z"/><path class="cls-1" d="M87.44,38.23a7.28,7.28,0,0,1,5-1.78,7.59,7.59,0,0,1,3.54.83l3.61-1.9,1.86,3.12-2.74,1.37a6,6,0,0,1,.76,3,6,6,0,0,1-2,4.67,7.44,7.44,0,0,1-5,1.71,9.43,9.43,0,0,1-2.77-.42,1.6,1.6,0,0,0-.91,1.45c0,.94.61,1.4,1.78,1.4h3.92c4.1,0,6.72,2,6.72,5.62a5.6,5.6,0,0,1-1.33,3.77C98.08,63.2,95.53,64,92.49,64a11,11,0,0,1-6.27-1.64,5.36,5.36,0,0,1-2.39-4.67,5,5,0,0,1,1.56-3.8,4.57,4.57,0,0,1-1-3,4.49,4.49,0,0,1,2.35-4,6.16,6.16,0,0,1-1.33-4A6,6,0,0,1,87.44,38.23Zm3.38,17.44a12.5,12.5,0,0,1-2.2-.15,3.18,3.18,0,0,0-.42,1.75c0,1.78,1.71,2.73,4.29,2.73s4-.79,4-2.35c0-1.33-1-2-3.08-2Zm1.63-10.18a2.5,2.5,0,0,0,2.62-2.58,2.62,2.62,0,1,0-5.24,0A2.5,2.5,0,0,0,92.45,45.49Z"/></g></g></svg>