<svg xmlns="http://www.w3.org/2000/svg" viewBox="0 0 62.67 64.93"><defs><style>.cls-1{fill:#ef7d72;}</style></defs><title>logoAsset 11</title><g id="Layer_2" data-name="Layer 2"><g id="Layer_1-2" data-name="Layer 1"><polygon class="cls-1" points="26.05 31.37 26.05 31.37 26.05 31.37 26.05 31.37"/><path class="cls-1" d="M16.44,29.94h0Z"/><path class="cls-1" d="M14.74,28.64a0,0,0,0,1,0,0h0A0,0,0,0,0,14.74,28.64Z"/><path class="cls-1" d="M28.29,13.13h0Z"/><path class="cls-1" d="M46.47,31.38c-.3.47-.39.84-.26,1.08s.51.37,1,.37a3.64,3.64,0,0,0,2.56-1,8.53,8.53,0,0,0,.76-1.2A3.4,3.4,0,0,0,48.7,30,2.64,2.64,0,0,0,46.47,31.38Z"/><path class="cls-1" d="M47,40.34h0Z"/><path class="cls-1" d="M52.57,9.17C50.92,7.28,47,2.84,43.82,3.83a4.35,4.35,0,0,0-2.31,2,7.86,7.86,0,0,0-1.83-3.28C37.27,0,33.67,0,30.65,0a26.81,26.81,0,0,0-7.72,1.24,34.51,34.51,0,0,0-4.41,1.58L16.25,5.23C12.81,7.14,6,11.61,2.45,19.89c-6,14-1,34.93,16.07,42.45a32.16,32.16,0,0,0,39.91-12.7C69.42,31.7,56,13.05,52.57,9.17ZM23.32,55.68a7.39,7.39,0,0,1-3.65,1,10.67,10.67,0,0,1-7.92-4.2c-4-4.89-5.11-11.8-5.41-15.48C6,32.54,5.89,27,8.42,23.77a5.31,5.31,0,0,1,4.06-2.2,4,4,0,0,1,1.95.51c2.41,1.32,2.92,4.06,3.21,6.52a1.31,1.31,0,0,1-.28,1,1.43,1.43,0,0,1-1.06.43,1.64,1.64,0,0,1-1.67-1.43c-.16-1.32-.91-4.06-2.27-4.06a2.13,2.13,0,0,0-1.46.91c-1.11,1.29-1.33,3.31-1.47,4.64a34.65,34.65,0,0,0,.24,9.46c.45,2.66,1.62,7.62,4.39,11a7.71,7.71,0,0,0,5.56,3.12,4.42,4.42,0,0,0,2.18-.58,1.55,1.55,0,0,1,.74-.2A1.58,1.58,0,0,1,24,54.09,1.34,1.34,0,0,1,23.32,55.68Zm1.45-24.93A29.36,29.36,0,0,1,23,25.36c-.84-3.2-1.7-6.51-4.28-8.65a1.38,1.38,0,0,1-.48-1.59,1.85,1.85,0,0,1,1.7-1.18,1.7,1.7,0,0,1,1.08.4,10.69,10.69,0,0,1,2.48,3A6.76,6.76,0,0,1,27.73,13a1.64,1.64,0,0,1,.56-.11,1.52,1.52,0,0,1,1.45,1.35,1.7,1.7,0,0,1-1.1,1.94C26.3,17,26.26,20,26.23,22a17.58,17.58,0,0,0,1.41,7.1h0a1.77,1.77,0,0,1-.15,1.67,1.8,1.8,0,0,1-1.45.83A1.4,1.4,0,0,1,24.77,30.75Zm14.89,1.61A84.94,84.94,0,0,1,34.91,44.8c-1.51,3.43-3.25,7-6.31,9.38a1.61,1.61,0,0,1-1,.34A1.74,1.74,0,0,1,26,53.41,1.2,1.2,0,0,1,26.49,52c2.7-2.12,4.19-5.11,5.49-8A100.71,100.71,0,0,0,36,34c.48-1.47,2.34-7.64,1.71-12.51a1.54,1.54,0,0,1-.1-.58v-.07a8.62,8.62,0,0,0-1.07-3,5.42,5.42,0,0,0-4.08-2.52A1.18,1.18,0,0,1,31.4,14,1.69,1.69,0,0,1,33,12.41h.24a7.55,7.55,0,0,1,5.45,3.28,10.68,10.68,0,0,1,.77-1.51,6.41,6.41,0,0,1,5.57-3.28,8.22,8.22,0,0,1,1.38.12,1.26,1.26,0,0,1,1.09,1.42A1.63,1.63,0,0,1,46,14a1.53,1.53,0,0,1-.3,0,4.38,4.38,0,0,0-.71-.07c-3.26,0-4.24,4.42-4.3,7a1.44,1.44,0,0,1,0,.37A30.93,30.93,0,0,1,39.66,32.36Zm15.82,5.39c-.95,2.88-3.73,5.93-7,5.93a5.32,5.32,0,0,1-2.32-.54,1.41,1.41,0,0,1-.83-1.64A1.83,1.83,0,0,1,47,40.09a1.86,1.86,0,0,1,.75.17,1.56,1.56,0,0,0,.7.16c1.29,0,2.62-1.37,3.2-2.29a6.36,6.36,0,0,0,.86-4.48,6.05,6.05,0,0,1-2.25,2,6.46,6.46,0,0,1-2.83.63,5.12,5.12,0,0,1-3.62-1.3c-1.72-1.67-1.09-4.21.21-5.86a6.34,6.34,0,0,1,5-2.36h.23a6.34,6.34,0,0,1,2.54.62l.06-.22A12.71,12.71,0,0,0,49,15.4a1.57,1.57,0,0,1-.33-1.75,1.78,1.78,0,0,1,1.56-1.09,1.54,1.54,0,0,1,1.12.51,16.15,16.15,0,0,1,3.11,16.71A9.62,9.62,0,0,1,55.48,37.75Z"/><path class="cls-1" d="M27.63,54.42h0Z"/><path class="cls-1" d="M54.21,29.82a.35.35,0,0,1,0,.08.41.41,0,0,0,0-.09Z"/><path class="cls-1" d="M50.24,12.82h0Z"/></g></g></svg>