<svg xmlns="http://www.w3.org/2000/svg" viewBox="0 0 55.53 64.11"><defs><style>.cls-1{fill:#f89522;}.cls-2{fill:#f3b6b8;}</style></defs><title>EGGAsset 16</title><g id="Layer_2" data-name="Layer 2"><g id="Layer_1-2" data-name="Layer 1"><path class="cls-1" d="M21.88,2.15a29,29,0,0,1,19.36-.88c6,2,9,6.67,10.45,12.2,4.74,8,4.74,18.59,1.93,28C49.53,55.06,38.84,64.61,24.2,64.09c-7.09-.25-15.15-2.71-19.33-8.81S-.24,41.15.05,34C.61,20.28,8.88,7.13,21.88,2.15Z"/><path class="cls-2" d="M23.48,13.09a.34.34,0,0,1-.09.68A.34.34,0,0,1,23.48,13.09Z"/><path class="cls-2" d="M35.09,28.26a.34.34,0,0,1-.09.68A.34.34,0,0,1,35.09,28.26Z"/><path class="cls-2" d="M35.2,27.42a.34.34,0,0,1-.09.68A.34.34,0,0,1,35.2,27.42Z"/><path class="cls-2" d="M30.14,18.77a.29.29,0,0,1,.26-.07h0a.34.34,0,0,1-.09.67h0a.24.24,0,0,1-.14-.05A.36.36,0,0,1,30.14,18.77Z"/><path class="cls-2" d="M21.15,24.28a.34.34,0,0,1-.09.68A.34.34,0,0,1,21.15,24.28Z"/><path class="cls-2" d="M18.86,22.27a.34.34,0,0,1-.09.68A.34.34,0,0,1,18.86,22.27Z"/><path class="cls-2" d="M19.89,24.11a.34.34,0,0,1-.09.68A.34.34,0,0,1,19.89,24.11Z"/><path class="cls-2" d="M21.68,29.89a.34.34,0,0,1-.09.67A.34.34,0,0,1,21.68,29.89Z"/><path class="cls-2" d="M28,33.7a.34.34,0,0,1-.09.68A.34.34,0,0,1,28,33.7Z"/><path class="cls-2" d="M36.22,39.05a.34.34,0,0,1-.09.68A.34.34,0,0,1,36.22,39.05Z"/><path class="cls-2" d="M42.9,27.17a.34.34,0,0,1-.09.67A.34.34,0,0,1,42.9,27.17Z"/><path class="cls-2" d="M42,21.09a.34.34,0,0,1-.09.67A.34.34,0,0,1,42,21.09Z"/><path class="cls-2" d="M35.22,11.25a.34.34,0,0,1-.09.67A.34.34,0,0,1,35.22,11.25Z"/><path class="cls-2" d="M23.34,11a.34.34,0,0,1-.09.67A.34.34,0,0,1,23.34,11Z"/><path class="cls-2" d="M15.06,18.79a.34.34,0,0,1-.09.67A.34.34,0,0,1,15.06,18.79Z"/><path class="cls-2" d="M12.65,40.18a.34.34,0,0,1-.09.68A.34.34,0,0,1,12.65,40.18Z"/><path class="cls-2" d="M22.25,51.25a.34.34,0,0,1-.09.68A.34.34,0,0,1,22.25,51.25Z"/><path class="cls-2" d="M35.61,50h0a.34.34,0,0,1,.23.14.39.39,0,0,1-.06.47.37.37,0,0,1-.26.07h0A.34.34,0,0,1,35.61,50Z"/><path class="cls-2" d="M35.37,45.41a.68.68,0,0,1-.18,1.35A.68.68,0,0,1,35.37,45.41Z"/><path class="cls-2" d="M44.46,41.08a.69.69,0,0,1-.18,1.36A.69.69,0,0,1,44.46,41.08Z"/><path class="cls-2" d="M41.26,49.17a.69.69,0,0,1-.18,1.36A.69.69,0,0,1,41.26,49.17Z"/><path class="cls-2" d="M25.92,55.65A.68.68,0,0,1,25.74,57,.68.68,0,0,1,25.92,55.65Z"/><path class="cls-2" d="M26.08,41.62A.68.68,0,0,1,25.9,43,.68.68,0,0,1,26.08,41.62Z"/><path class="cls-2" d="M41.46,57.29a.68.68,0,0,1-.18,1.35A.68.68,0,0,1,41.46,57.29Z"/><path class="cls-2" d="M33.59,58.8a.68.68,0,0,1-.18,1.35A.68.68,0,0,1,33.59,58.8Z"/><path class="cls-2" d="M48,46.66A.68.68,0,0,1,47.8,48,.68.68,0,0,1,48,46.66Z"/><path class="cls-2" d="M44.08,50.4a.68.68,0,0,1-.18,1.35A.68.68,0,0,1,44.08,50.4Z"/><path class="cls-2" d="M15.63,11.28a.68.68,0,0,1-.18,1.35A.68.68,0,0,1,15.63,11.28Z"/><path class="cls-2" d="M27.93,5.25a.68.68,0,0,1-.18,1.35A.68.68,0,0,1,27.93,5.25Z"/><path class="cls-2" d="M26,19.48a.68.68,0,0,1-.18,1.35A.68.68,0,0,1,26,19.48Z"/></g></g></svg>