<svg xmlns="http://www.w3.org/2000/svg" viewBox="0 0 165.21 165.17"><defs><style>.cls-1{fill:#f3b6b8;}.cls-2{fill:#ed4a2f;}.cls-3{fill:#7dbfe8;}.cls-4{fill:#24326b;}.cls-5{fill:#21509d;}.cls-6{fill:#7996cd;}.cls-7{fill:#ef7d72;}.cls-8{fill:#fff;}.cls-9{fill:#ed4a30;}</style></defs><title>lamp-icon-selectedAsset 20</title><g id="Layer_2" data-name="Layer 2"><g id="Layer_1-2" data-name="Layer 1"><rect class="cls-1" x="1" y="1" width="163.21" height="140.46" rx="8.57"/><path class="cls-2" d="M155.65,2a7.57,7.57,0,0,1,7.56,7.57V132.89a7.58,7.58,0,0,1-7.56,7.57H9.57A7.58,7.58,0,0,1,2,132.89V9.57A7.57,7.57,0,0,1,9.57,2H155.65m0-2H9.57A9.56,9.56,0,0,0,0,9.57V132.89a9.57,9.57,0,0,0,9.57,9.57H155.65a9.57,9.57,0,0,0,9.56-9.57V9.57A9.56,9.56,0,0,0,155.65,0Z"/><path class="cls-3" d="M128.06,78.4a.82.82,0,0,0-.12,1.63A.82.82,0,0,0,128.06,78.4Z"/><path class="cls-4" d="M127.46,44.12s-3.8-2.22-9.72,4.61S96.11,79.56,94.92,82.48s-5,14.06-5.12,17.87c0,0,14.67-25.26,18.92-29s16.72-21.26,17.21-23.53A10.64,10.64,0,0,1,127.46,44.12Z"/><path class="cls-4" d="M106.72,48.19s-4.28-1.71-5.29,5.62S92.61,80.3,92.61,80.3,84.9,99.47,88,106c0,0,2.52-9,5.64-10.55s9.21-17,10.42-20.06S108.73,57,108.68,53.8A10,10,0,0,0,106.72,48.19Z"/><path class="cls-4" d="M105.31,49.58c-.28,0-1,2.08-1.45,3.3a33.58,33.58,0,0,0-1.53,7.38c-.2,2.06-.48,2.25-3.24,10.88C94.77,84.66,95,85.7,92.64,90.58c-2.08,4.39-4,7.24-3.79,7.32s3.51-4.05,6.15-9.22c2-4,1.76-4.84,4.71-14.88,2.18-7.39,3.74-11.74,5-19C105,53.58,105.67,49.65,105.31,49.58Z"/><path class="cls-5" d="M132.81,38.81c-5-1.69-16.88.86-22.1,4.83S99.43,70.69,99.43,70.69s19.08-18.85,23.5-22.16,8.76-4.47,10.56-7.7S132.81,38.81,132.81,38.81Z"/><path class="cls-4" d="M130.58,39.7a13.71,13.71,0,0,0-2.53.45,40.09,40.09,0,0,0-5.24,1.53,31.23,31.23,0,0,0-7.25,4c-7.23,5.3-11.66,14.6-11.33,14.73.13.06.83-1.33,4.14-5.43,4.12-5.11,6.25-7.7,9.3-9.59a50,50,0,0,1,7.55-3.64C128,40.62,130.65,39.84,130.58,39.7Z"/><path class="cls-6" d="M109,73.23c14-4.49,26.35-2.94,29.74,1.73,1.56,2.15,2.86,7.24-.32,10.52a8.45,8.45,0,0,1-2.2,1.6A6,6,0,0,0,134,83.52a9.76,9.76,0,0,0-6-1.92,9.44,9.44,0,0,1,5.46,2.92,5.83,5.83,0,0,1,1.4,3.58,16.76,16.76,0,0,1-1.93,1.32,7.25,7.25,0,0,1-2.75,1.2c-1.05.14-1.18-.2-2.54-.13s-1.5.46-2.85.57c-1.8.14-2.07-.53-3.71-.35-1.16.13-1.23.48-2.79.84a13.45,13.45,0,0,1-3.09.31c-3.08.16-4.29,5.49-7.16,8.35-5.1,5.07-14,1-21.83,5.85a15.32,15.32,0,0,0-6.54,9l-2.16-2.51,6.74-8.51a25.33,25.33,0,0,1,6.1-19.58C96.82,76.87,105.9,74.07,109,73.23Z"/><path class="cls-5" d="M134.63,74.84c.35.37-6.58,2.7-12.82,4.38-2.67.72-4.63,1.16-5.15,1.29A43.18,43.18,0,0,0,94.1,95.14c-8.87,11-7.31,20.09-8,20.08s-3.72-8.57,2.94-18.31c1.67-2.44,9.59-13.22,29.48-19C125.75,75.81,134.27,74.45,134.63,74.84Z"/><path class="cls-6" d="M56,70.63c-11.72-4.55-21.94-3.06-24.57,1.59-1.22,2.15-2.1,7.23.66,10.52A7.44,7.44,0,0,0,34,84.34a6.09,6.09,0,0,1,1.72-3.54,6.87,6.87,0,0,1,4.9-1.9,7.13,7.13,0,0,0-4.41,2.9,6.32,6.32,0,0,0-1,3.58,16.24,16.24,0,0,0,1.66,1.32,5.63,5.63,0,0,0,2.32,1.21c.87.14,1-.19,2.1-.12s1.26.47,2.39.58c1.49.15,1.69-.52,3.06-.33,1,.13,1,.49,2.34.86a9.55,9.55,0,0,0,2.57.32c2.56.17,3.76,5.5,6.25,8.37,4.42,5.09,11.67,1,18.31,6,1.85,1.38,4.31,3.94,5.77,9.07l1.69-2.5-5.91-8.53A30.06,30.06,0,0,0,71.91,82,32.37,32.37,0,0,0,56,70.63Z"/><path class="cls-3" d="M34.85,72.12c-.28.37,5.55,2.73,10.79,4.44,2.23.73,3.88,1.18,4.31,1.31,5,1.42,13,5.81,19.25,14.72,7.76,11,6.82,20.1,7.38,20.1s2.76-8.55-3.13-18.31C72,91.94,65,81.13,48.3,75.26,42.24,73.14,35.13,71.74,34.85,72.12Z"/><path class="cls-4" d="M60.31,34.53a7.1,7.1,0,0,0-4.75-1.71c-3,.22-4.63,2.76-5.51,4.18-2.75,4.4-1.25,9.14-.44,11.16l7.44-2.65L51.26,50c1.77,3.29,3.52,6.61,5.28,9.95,1.06,2,2.11,4,3.15,6.06l9.29.1-6.74,4.33a23.47,23.47,0,0,0,2.15,3.14c4.74,5.86,10.31,5.09,12.2,9.48,2,4.56,2,14.54,2,14.54l3.3,1.4S78.56,81,76.86,77.76s4.36-11.33.8-18.17C73.18,51,70.36,44,68.33,41.71A49.14,49.14,0,0,0,60.31,34.53Z"/><path class="cls-5" d="M54.67,36.14C55,36,58.29,41,59,42.07c8.82,13.37,15.56,34.56,15.25,34.62-.13,0-1.37-4-6.08-15.08C64.73,53.49,63,49.4,61.56,47.67A49.12,49.12,0,0,1,56,39.28C55.86,39,54.42,36.23,54.67,36.14Z"/><path class="cls-3" d="M112.91,31s-4.09-1.86-8.92,5.52S87.21,69.33,86.48,72.36s-2.88,14.5-2.38,18.3c0,0,10.72-26.57,14.36-30.68S111.81,37.2,112,34.89A10.23,10.23,0,0,1,112.91,31Z"/><path class="cls-5" d="M67.08,37.83c-3.9,4.1,2.25,8.12,3.34,11.24s7.36,13.81,9.39,16.69,5.51,17.75,5.51,17.75,7.86-27-7.82-39.79c0,0-.34-3.35-5-5.54S67.08,37.83,67.08,37.83Z"/><path class="cls-5" d="M84,47.57c-.52-.48-2.5-2.33-4.26-2-5.73,1-3.31,23.91-.78,37.06A141.85,141.85,0,0,0,83.1,98.83c-.15-2.67-.39-6.68-.76-11.57-.69-9.19-.92-9.6-.74-12,.43-5.55,1.83-5.68,3.65-15C86.67,53,86.43,49.83,84,47.57Z"/><path class="cls-5" d="M80.29,47.12c-.38,0-1.08,5.45-1.23,6.66-1.86,14.76,2,36.34,2.28,36.31.14,0-.61-4.06-1.51-15.68-.66-8.48-1-12.76-.48-14.74a38.83,38.83,0,0,0,1.19-9.28C80.55,50.11,80.56,47.14,80.29,47.12Z"/><path class="cls-4" d="M117.41,25.24c-5.23-1.21-16.57,2.46-21.13,6.91s-7.11,28-7.11,28,16-20.59,19.92-24.31,8-5.29,9.29-8.68S117.41,25.24,117.41,25.24Z"/><path class="cls-5" d="M115.33,26.33a13.8,13.8,0,0,0-2.43.69,37,37,0,0,0-5,2,28.52,28.52,0,0,0-6.58,4.62c-6.36,6-9.34,15.66-9,15.76.13,0,.61-1.41,3.27-5.8,3.31-5.49,5-8.27,7.76-10.45a46,46,0,0,1,6.93-4.34C112.91,27.5,115.42,26.47,115.33,26.33Z"/><path class="cls-5" d="M63.86,27.23c-4.35,5.52,10.43,5.8,13.36,8.64s8.85,7.29,9.58,13.57a64,64,0,0,1,.67,7.29s4.42-19.14-6-27.21c-1.94-1.5-7.52-4.29-11-4.29-.73,0-1.43.08-1.43.08A11.63,11.63,0,0,0,63.86,27.23Z"/><path class="cls-6" d="M68.87,25.34c-.12.2,2.33,1.44,4.54,2.33.94.38,1.64.61,1.82.68,2.1.73,5.45,3.06,8.06,7.86,3.21,5.91,2.74,10.89,3,10.88s1.23-4.67-1.19-9.94A21,21,0,0,0,74.55,26.94C72,25.83,69,25.13,68.87,25.34Z"/><path class="cls-3" d="M126.45,53.79s7.76-2.67,8.09,5.93-26.4,26.7-31.06,28-11.71.78-15.76,4.21-9,12.45-9,12.45l-3.68.08S86.92,89.37,90.08,87s1.64-11.84,8.26-16.76,11.35-9.76,17.3-12.86A33.81,33.81,0,0,1,126.45,53.79Z"/><path class="cls-5" d="M92.6,86c.26.23,5.49-3.28,6.64-4.06,14.08-9.45,29.71-26.82,29.45-27s-3,3.22-12.32,11.94c-6.78,6.37-10.21,9.57-12.29,10.71a57.87,57.87,0,0,0-8.86,5.93C95,83.72,92.41,85.83,92.6,86Z"/><path class="cls-4" d="M125.14,96.87c2.07,6.75-11.79,1.58-15.55,3.16s-10.84,3.55-13.78,9.14a69.5,69.5,0,0,0-3.25,6.55S95.32,96.25,108,92.56c2.35-.68,8.54-1.24,11.75,0,.68.27,1.3.6,1.3.6A11.76,11.76,0,0,1,125.14,96.87Z"/><path class="cls-6" d="M121.16,93.27c0,.23-2.69.48-5.07.5-1,0-1.74,0-1.94,0-2.22-.09-6.17.86-10.32,4.38-5.12,4.34-6.47,9.15-6.69,9s.54-4.81,4.68-8.83a20.72,20.72,0,0,1,13.47-5.66C118.07,92.58,121.12,93,121.16,93.27Z"/><path class="cls-5" d="M51.54,58.19s-4.61.71.31,7.12S65.66,91,65.66,91s9,19.27,16.43,23c0,0-5-8.5-3.87-11.28s-6.16-18.27-7.6-21.31S60,64.33,57.4,61.74A15.2,15.2,0,0,0,51.54,58.19Z"/><path class="cls-4" d="M51.54,60c-.25.09.81,2.2,1.45,3.37a41.45,41.45,0,0,0,4.56,6.71c1.44,1.76,1.38,2,6,10.37,7.19,13,8.14,13.78,10.16,18.86,1.81,4.56,2.56,7.8,2.78,7.77s-.46-5-2.45-10.46c-1.53-4.21-2.41-4.78-8-14.33C62,75.26,59.8,71,55.15,64.47,54.38,63.39,51.87,59.88,51.54,60Z"/><path class="cls-3" d="M64.53,78.44c-2.72,5,4.25,7.27,6.1,10S81.28,99.91,84,102.18s9.86,15.76,9.86,15.76.69-28.16-17.73-36.47c0,0-1.19-3.16-6.21-4.09S64.53,78.44,64.53,78.44Z"/><path class="cls-6" d="M88.25,34.42a24.11,24.11,0,0,0-6.58.64c-4.16.77-7,1.34-8.6,3.69a7.77,7.77,0,0,0-1.23,4.61l12.44-.22L72.9,46c.13,4.38.25,8.8.34,13.23q.08,4,.14,8l13.1,3.57L73.82,73.24a19.67,19.67,0,0,0,.79,4.36c2.53,8.41,11,9.61,10.52,15.29-.48,5.9-7.54,17.22-7.54,17.22l3.68,2.81c.21-14.51,4.24-21.85,8-25.88C91.21,85,94.76,82,97.93,76.14a37.2,37.2,0,0,0,3.76-10.06,36.43,36.43,0,0,0,.16-13.75c.69-1.5,2.38-5.72.69-9.93C99.65,35.2,89.45,34.5,88.25,34.42Z"/><path class="cls-5" d="M86.45,35.09s-1.14,14.52-1.06,28.66S86.6,91.17,86.6,91.17s.35-16,.37-24.26.55-3.71.33-17.25S86.45,35.09,86.45,35.09Z"/><path class="cls-3" d="M88.75,34.19c-7.84-.5-15.52,4.35-15.52,4.35a23.69,23.69,0,0,0,3.13,6.4c1.31,1.91,5.13,6.45,11.32,6.93a14.85,14.85,0,0,0,8.36-2,5.72,5.72,0,0,0-.77-3.37A8.91,8.91,0,0,0,90.74,43a16.36,16.36,0,0,1,5.62,2.84,13,13,0,0,1,2.29,2.34q2.34-3,4.66-6h0s-3.89-4.63-9.22-6.28Z"/><path class="cls-5" d="M88.65,33.79a36.88,36.88,0,0,0-2.05,8.42,35.35,35.35,0,0,0,.28,8.19s.89-4.72,1.2-7.16.68-1.06.92-5.09S88.65,33.79,88.65,33.79Z"/><path class="cls-3" d="M53.75,80.57a13.43,13.43,0,0,0-3.07-1.78c-1-.41-1.53,1.14-.56,1.54a11.24,11.24,0,0,1,2.7,1.58C53.65,82.56,54.58,81.22,53.75,80.57Z"/><path class="cls-3" d="M59.42,83.89a30.41,30.41,0,0,1-2.58-1.79c-.84-.64-1.77.7-.94,1.35s1.7,1.23,2.59,1.79S60.32,84.45,59.42,83.89Z"/><path class="cls-3" d="M54.83,84.5A5.72,5.72,0,0,0,52,82.93a.84.84,0,0,0-1,.49.81.81,0,0,0,.49,1,4.26,4.26,0,0,1,2.1,1.09C54.33,86.3,55.58,85.24,54.83,84.5Z"/><path class="cls-3" d="M48,78.3a.82.82,0,0,0-.13,1.63A.82.82,0,0,0,48,78.3Z"/><path class="cls-3" d="M119.12,81.53l-3.73.75a.82.82,0,0,0,.31,1.61l3.73-.75A.82.82,0,0,0,119.12,81.53Z"/><path class="cls-3" d="M125,79.18a20.86,20.86,0,0,0-3.08,1.19.82.82,0,0,0,.71,1.47,17.52,17.52,0,0,1,2.68-1C126.26,80.49,126,78.88,125,79.18Z"/><path class="cls-3" d="M122,83.58a.83.83,0,0,0-1.15-.09l-2,1.38A.84.84,0,0,0,118.7,86a.85.85,0,0,0,1.16.09l2-1.39A.81.81,0,0,0,122,83.58Z"/><path class="cls-3" d="M115.87,85.05a7.48,7.48,0,0,1-3.35.35.82.82,0,0,0-.13,1.63,9.33,9.33,0,0,0,4.19-.51C117.57,86.17,116.85,84.7,115.87,85.05Z"/><path class="cls-3" d="M112.83,83a.82.82,0,0,0-.12,1.63A.82.82,0,0,0,112.83,83Z"/><path class="cls-3" d="M118.89,87.57l-2-.16a.82.82,0,0,0-.12,1.63l2,.16A.82.82,0,0,0,118.89,87.57Z"/><path class="cls-3" d="M95.88,94.56c-1.65,1.93-3.22,3.91-4.7,6-.62.85.73,1.78,1.35.93q2.22-3.08,4.69-6C97.91,94.69,96.56,93.77,95.88,94.56Z"/><path class="cls-3" d="M100.28,93.89A12.51,12.51,0,0,0,96.17,98a.82.82,0,0,0,1.35.94A10.64,10.64,0,0,1,101,95.36C101.92,94.87,101.21,93.39,100.28,93.89Z"/><path class="cls-3" d="M101.11,95.82l-1.29,1.69c-.65.84.7,1.77,1.34.94l1.29-1.69C103.1,95.92,101.75,95,101.11,95.82Z"/><path class="cls-3" d="M98.79,92.17a.82.82,0,0,0-.13,1.64A.82.82,0,0,0,98.79,92.17Z"/><path class="cls-5" d="M61.06,48.56l-1.38-2a.83.83,0,0,0-1.15-.09.84.84,0,0,0-.09,1.16l1.38,2a.83.83,0,0,0,1.15.09A.85.85,0,0,0,61.06,48.56Z"/><path class="cls-5" d="M63.78,53.78a13.27,13.27,0,0,1-1.17-2.61.85.85,0,0,0-1-.65.82.82,0,0,0-.65,1,16.38,16.38,0,0,0,1.3,3C62.82,55.41,64.3,54.7,63.78,53.78Z"/><path class="cls-5" d="M60.82,51.58a22.76,22.76,0,0,0-1.45-2c-.67-.82-1.91.25-1.25,1.07a18.05,18.05,0,0,1,1.23,1.68.84.84,0,0,0,1.09.38A.82.82,0,0,0,60.82,51.58Z"/><path class="cls-5" d="M57.13,51.33A.82.82,0,0,0,57,53,.82.82,0,0,0,57.13,51.33Z"/><path class="cls-5" d="M69.21,54.35a16.91,16.91,0,0,1-1.09-2.42A.82.82,0,0,0,67,51.55a.83.83,0,0,0-.38,1.09,16,16,0,0,0,1.09,2.42C68.25,56,69.73,55.27,69.21,54.35Z"/><path class="cls-5" d="M71.17,59.4c-.17-.63-.33-1.26-.5-1.89a.82.82,0,1,0-1.61.31c.17.63.33,1.26.5,1.89a.82.82,0,0,0,1.61-.31Z"/><path class="cls-5" d="M72.13,55c-.15-.4-.29-.81-.44-1.22a.82.82,0,0,0-1.09-.37.84.84,0,0,0-.38,1.09l.44,1.22a.83.83,0,0,0,1.09.38A.85.85,0,0,0,72.13,55Z"/><path class="cls-5" d="M89.38,70.31c0-1-1.6-1.18-1.63-.13s-.07,2.08-.1,3.12,1.6,1.18,1.63.13S89.35,71.35,89.38,70.31Z"/><path class="cls-5" d="M89.49,79a10.77,10.77,0,0,1,.1-2.34c.14-1-1.49-1.17-1.63-.13a13.61,13.61,0,0,0-.08,2.78.82.82,0,0,0,1,.65A.84.84,0,0,0,89.49,79Z"/><path class="cls-5" d="M91.39,74.71l-.17-1.34a.82.82,0,0,0-1-.65.84.84,0,0,0-.65,1c0,.45.11.89.16,1.34a.83.83,0,0,0,1,.65A.84.84,0,0,0,91.39,74.71Z"/><path class="cls-5" d="M92.69,71.91a3.17,3.17,0,0,1-.2-1.36.82.82,0,0,0-1.63-.13,5,5,0,0,0,.36,2.2.82.82,0,0,0,1.09.38A.84.84,0,0,0,92.69,71.91Z"/><path class="cls-5" d="M92.31,67.44a1.28,1.28,0,0,1,0-.82.81.81,0,0,0-.75-.87.83.83,0,0,0-.88.75,2.74,2.74,0,0,0,.2,1.65C91.24,69.12,92.72,68.41,92.31,67.44Z"/><path class="cls-5" d="M94,68.06a.82.82,0,0,0-.12,1.63A.82.82,0,0,0,94,68.06Z"/><path class="cls-5" d="M80.38,57.45l-.21,2.66a.82.82,0,0,0,1.64.12l.2-2.66A.82.82,0,0,0,80.38,57.45Z"/><path class="cls-5" d="M84.4,55.52c.12-1-1.51-1.17-1.63-.12a17.69,17.69,0,0,0,0,3.78c.11,1,1.71.73,1.61-.31A16.31,16.31,0,0,1,84.4,55.52Z"/><path class="cls-5" d="M84.07,61.41c.13-1-1.5-1.16-1.63-.12a21.5,21.5,0,0,0-.17,2.78c0,1.05,1.63,1.18,1.63.13A21.77,21.77,0,0,1,84.07,61.41Z"/><path class="cls-5" d="M78.18,57.05l-.11,1.33a.82.82,0,0,0,1.64.13l.1-1.33A.82.82,0,0,0,78.18,57.05Z"/><path class="cls-5" d="M78.94,53.5a.82.82,0,0,0-.13,1.63A.82.82,0,0,0,78.94,53.5Z"/><path class="cls-5" d="M76.68,55.22a.82.82,0,0,0-.12,1.63A.82.82,0,0,0,76.68,55.22Z"/><path class="cls-5" d="M91.69,36.42a.83.83,0,0,0-1-.65.84.84,0,0,0-.65,1,13,13,0,0,1-.17,2.85c-.18,1,1.45,1.16,1.63.12A15,15,0,0,0,91.69,36.42Z"/><path class="cls-5" d="M91.93,39.42l-.11,1.43a.82.82,0,0,0,1.63.13l.11-1.43A.82.82,0,0,0,91.93,39.42Z"/><path class="cls-4" d="M107.27,59.12a.85.85,0,0,0-1.14.21,11.28,11.28,0,0,0-1.7,2.75c-.43,1,1.11,1.51,1.54.55a9.83,9.83,0,0,1,1.51-2.37A.82.82,0,0,0,107.27,59.12Z"/><path class="cls-4" d="M109.61,55l-1.53,2.24a.82.82,0,0,0,1.34.94L111,56A.82.82,0,0,0,109.61,55Z"/><path class="cls-4" d="M112,52.61a.82.82,0,0,0-.13,1.64A.82.82,0,0,0,112,52.61Z"/><path class="cls-4" d="M114.77,43.72a9,9,0,0,0-2.18,1.7.84.84,0,0,0-.09,1.15.81.81,0,0,0,1.15.09,7.63,7.63,0,0,1,1.83-1.47C116.4,44.68,115.69,43.21,114.77,43.72Z"/><path class="cls-4" d="M111.08,46.94a.82.82,0,0,0-.13,1.63A.82.82,0,0,0,111.08,46.94Z"/><path class="cls-4" d="M67.6,88.43a16.67,16.67,0,0,1-1.77-2.56c-.52-.91-2-.2-1.48.72a19.23,19.23,0,0,0,2,2.9A.82.82,0,0,0,67.6,88.43Z"/><path class="cls-4" d="M70.47,93.9a6.25,6.25,0,0,1-1.64-2.35c-.39-1-1.86-.26-1.47.71A7.37,7.37,0,0,0,69.23,95a.86.86,0,0,0,1.16.09A.83.83,0,0,0,70.47,93.9Z"/><path class="cls-4" d="M71,96.24a.82.82,0,0,0-.12,1.63A.82.82,0,0,0,71,96.24Z"/><path class="cls-4" d="M73.67,101.17a4.09,4.09,0,0,1-.58-1.51.82.82,0,0,0-1.6.31,5.31,5.31,0,0,0,.71,1.92.84.84,0,0,0,1.09.37A.82.82,0,0,0,73.67,101.17Z"/><path class="cls-5" d="M48,91.3c-2.81,6.15,11.63,4,15.22,6.35S73.68,103.39,76,109.46a72.14,72.14,0,0,1,2.53,7.08S77.92,97,65.68,90.7c-2.28-1.16-8.42-3-11.77-2.45a12.8,12.8,0,0,0-1.36.32A10.33,10.33,0,0,0,48,91.3Z"/><path class="cls-6" d="M52.39,88.62c-.07.22,2.64,1,5,1.56,1,.22,1.75.34,2,.37,2.23.39,6.08,2.14,9.85,6.44,4.64,5.31,5.46,10.29,5.7,10.25s0-4.81-3.72-9.61a23.85,23.85,0,0,0-12.86-8.35C55.56,88.6,52.45,88.39,52.39,88.62Z"/><path class="cls-4" d="M63.27,93.52a.82.82,0,0,0-.13,1.63A.82.82,0,0,0,63.27,93.52Z"/><path class="cls-4" d="M67.88,97.07a6,6,0,0,0-2.26-1.68.83.83,0,0,0-1.05.49.85.85,0,0,0,.5,1.05,4.13,4.13,0,0,1,1.57,1.21C67.31,99,68.55,97.89,67.88,97.07Z"/><path class="cls-4" d="M61.31,94.5a.82.82,0,0,0-.13,1.63A.82.82,0,0,0,61.31,94.5Z"/><path class="cls-4" d="M58.45,92.4A.82.82,0,0,0,58.32,94,.82.82,0,0,0,58.45,92.4Z"/><path class="cls-4" d="M103.59,73.93a39.06,39.06,0,0,0-3.73,2.68c-.82.66.25,1.9,1.07,1.24a33.7,33.7,0,0,1,3.38-2.44C105.19,74.85,104.48,73.37,103.59,73.93Z"/><path class="cls-4" d="M107.4,71l-1.59,1.31c-.82.67.25,1.91,1.06,1.24l1.6-1.31C109.28,71.61,108.22,70.37,107.4,71Z"/><path class="cls-4" d="M103.43,71.3a5.59,5.59,0,0,0-1.63,1c-.77.71.29,2,1.07,1.24a4,4,0,0,1,1.27-.8C105.12,72.38,104.4,70.91,103.43,71.3Z"/><path class="cls-4" d="M105.47,80.22a.83.83,0,0,0-1.15-.09l-1.51,1a.84.84,0,0,0-.09,1.16.85.85,0,0,0,1.16.09l1.5-1A.82.82,0,0,0,105.47,80.22Z"/><path class="cls-4" d="M100,83.05a2.39,2.39,0,0,1-1.59.69.82.82,0,0,0-.65,1,.84.84,0,0,0,1,.65A3.78,3.78,0,0,0,101,84.29C101.77,83.57,100.71,82.32,100,83.05Z"/><path class="cls-4" d="M102.89,84.44a3.25,3.25,0,0,1-1.53.81.82.82,0,0,0,.31,1.6A4.75,4.75,0,0,0,104,85.68C104.72,85,103.66,83.71,102.89,84.44Z"/><path class="cls-7" d="M36,102.82l-27.16,7.4L11,135.05l30.88-10.6Q38.95,113.64,36,102.82Z"/><path class="cls-1" d="M33.91,119.38s.15-12.33,1.82-17.47,9.94-5,9.94-5,32.79,2.59,35.05,3.51S82,105.21,82,105.21l-3.89,21.5Z"/><path class="cls-1" d="M37.94,101.37a24.61,24.61,0,0,0-11.46,1.08c-6.44,2.1-20,6.25-22.61,7.11s-2,4.54-1.87,7.54,1.94,22,1.94,22l8.58,2.06s-.88-21.38-1.21-25.95,2.37-4.16,5.88-5.15,20.44-6.17,20.44-6.17Z"/><path class="cls-7" d="M44.26,98.1l-1,.46a6.46,6.46,0,0,0-6.16,6.33.9.9,0,0,0,0,.29c0,.09-.07.17-.1.25a1.41,1.41,0,0,0-.35.57,18,18,0,0,0-.43,9.27c.28,1.35,2.21,1,2.5-.14a18.36,18.36,0,0,0,.28-5.39c0-.12,0-.24,0-.36a.76.76,0,0,0,1.23-.47,15,15,0,0,0,.21-2.76.69.69,0,0,0-.6-.72,12.9,12.9,0,0,1,.76-1.47,1.1,1.1,0,0,0,0-1.18,1.18,1.18,0,0,0,.6-.19c.84-.52,1.7-1,2.57-1.44h.26a1,1,0,0,0,1-.62C46.58,99.83,45.77,97.42,44.26,98.1Z"/><path class="cls-7" d="M80,101.55c-2.54,2.39-5,4.94-5.78,8.46a19.94,19.94,0,0,0-.41,3.46c-.21.77-.41,1.53-.6,2.3-.37,1.44-.71,2.89-1,4.34a1.93,1.93,0,0,0-1.93.39,2.19,2.19,0,0,0-1.76.28l-.16.07c-.47.21-.88.41-1.3.59a2.51,2.51,0,0,0-4.11-1.56,2,2,0,0,0-1.5,1.23,3.86,3.86,0,0,0-1.06.22l-.09,0a1.13,1.13,0,0,0-.4-.81c0-.13,0-.25,0-.38A1.31,1.31,0,0,0,58.5,119a4.1,4.1,0,0,0-.73.14,1.21,1.21,0,0,0-1.66-.23l-.62.49a1.39,1.39,0,0,0-1.29-.95,23.74,23.74,0,0,1-5.6-.61,1.26,1.26,0,0,0-1-.54,7.45,7.45,0,0,1-.67-.53,9.53,9.53,0,0,0-1.28-1.26c-.29-.18-.86-.25-1.07-.48l0,0v0a1.27,1.27,0,0,0-.29-.76,2.74,2.74,0,0,0-.22-.7c-.16-.27-.7-.87-.7-1,0-1.51-1.87-1.7-2.61-.74a1,1,0,0,0-.63.91,9.67,9.67,0,0,0,1.84,7,1.35,1.35,0,0,0,.59.44,1.15,1.15,0,0,0,.64.34l.07.21a1.27,1.27,0,0,0,1,.84,1.15,1.15,0,0,0,1.81,0c.08-.11.15-.22.23-.32l.15,0v.11a1.33,1.33,0,0,0,1.32,1.21,1.3,1.3,0,0,0,2.44.73,4,4,0,0,1,.2-.35l0,0c2.21,2,5.08,2.71,8,2.84h0a1.36,1.36,0,0,0,.67.32,41.74,41.74,0,0,0,17.24.2,1.3,1.3,0,0,0,.6-.29c.89.13,2-.46,1.76-1.49,0-.22-.07-.44-.11-.66a1.2,1.2,0,0,0,.38-1.06,9,9,0,0,0-.7-2.33l-.1-.17A33.29,33.29,0,0,1,80.87,105a1.6,1.6,0,0,0,.12-.82l.9-.86C83.11,102.14,81.17,100.42,80,101.55Z"/><path class="cls-1" d="M138.8,111.84s2.26-7.13-5.74-7.52-50.59-7-53-1.38-2.26,21.69-.82,22.31,46.05,7.09,46.05,7.09Z"/><path class="cls-7" d="M120.93,124.7l-2.53.14A.66.66,0,0,0,118,126a4.7,4.7,0,0,0-.75,0,1,1,0,0,0-1-.85l-.65,0a1.15,1.15,0,0,0-1.88-.3l-.11.13-1.67-.13a1.05,1.05,0,0,0-1.62-.14l-4.75-.39a1.13,1.13,0,0,0-1.71-.68l-.69.48-1-.09a1.16,1.16,0,0,0-1.88-.28l-.1.12h-.16a1.21,1.21,0,0,0-.5-.41,13.27,13.27,0,0,0-2.17-.75,1.1,1.1,0,0,0-1.51-.32c-1.18-.21-2.37-.33-3.58-.48l-.25-.15c-1.13-.69-4.31-2-5.3-3.61a6,6,0,0,0-.34-1.8,1.27,1.27,0,0,0-1-.81q-.3-2.11-.45-4.26a1.14,1.14,0,0,0-2.27.13c-.09,1.76-.09,3.51,0,5.26a1.81,1.81,0,0,0-.5,1.62l-.29,2.13a23.84,23.84,0,0,1-.57-5.67c.07-3,.55-8,3.24-9.89,1.2-.83,0-2.72-1.25-1.89-3.1,2.14-3.89,6.87-4.17,10.36a25.43,25.43,0,0,0,2.15,12.44c.41.92,2,1.1,2.19-.12l.17-1.31a1.22,1.22,0,0,0,1.36.16c.11.38.21.76.33,1.13a1.11,1.11,0,0,0,1.92.35,1.23,1.23,0,0,0,1.34,0l.16.64a1.1,1.1,0,0,0,1.82.45,1.12,1.12,0,0,0,.75.16l.09.38c.22.94,1.41.93,2,.33a1.14,1.14,0,0,0,1.83-.25l.72-1.28.07.3a1,1,0,0,0,1.18.74,1,1,0,0,0,.41.2,1.29,1.29,0,0,1,0,.19,1.14,1.14,0,0,0,2.12.76c.22-.42.46-.81.7-1.2a1.07,1.07,0,0,0,1.52.31l1.45-1c0,.22-.09.44-.15.67a1.16,1.16,0,0,0,1.65,1.25,1,1,0,0,0,1.48-.13,3.94,3.94,0,0,1,1.5-1.11l.19.34a.9.9,0,0,0,.74.52,1.1,1.1,0,0,0,1.6.1l.18,1.24a1.15,1.15,0,0,0,2.14.46c.41-.66.84-1.3,1.29-1.91,0,.11,0,.23,0,.34a1.25,1.25,0,0,0,0,1.48,1.11,1.11,0,0,0,2.09.33h.07a1.5,1.5,0,0,0,1.75-.26,1.14,1.14,0,0,0-.65-2.07.82.82,0,0,0,0-.26,1.07,1.07,0,0,0,0-.37,3.61,3.61,0,0,1,1.46.12c.8.22,1.07-1,.27-1.27l-.1,0L121,126A.65.65,0,0,0,120.93,124.7Z"/><path class="cls-1" d="M77.16,125.57C75,122.7,36.52,117.33,31.09,119s-20.63,7-20.93,9.77-2.38,7.55,3.72,9.8,33.66,7.52,39.36,7.1S77.16,125.57,77.16,125.57Z"/><path class="cls-7" d="M75.16,123.59c-.77.14-1.5.42-2.25.63a.79.79,0,0,0-.78,0l-.13.07a.78.78,0,0,0-.81-.2,16,16,0,0,0-1.94.7l-.34.11a1.07,1.07,0,0,0-.29.06l-.41.17,0,0c-1.88.74-4.14,1.09-5.48,2.68h0c-2.81,1.35-4.75,3.5-6.78,5.87a.83.83,0,0,0,.12,1.17c-.24.35-.49.71-.71,1.07a.8.8,0,0,0,.27,1A1.87,1.87,0,0,0,57,139.27a.81.81,0,0,0,1-.84c0-1.71.91-2.53,1.87-3.77a.79.79,0,0,0,.13-.78c1.15-.84,2.31-1.66,3.48-2.47a.91.91,0,0,0,.38-.15l1.26-.83a.74.74,0,0,0,.56-.12l.17-.1.06,0c.66-.43,1.36-.8,2-1.24l0,0a.78.78,0,0,0,.44-.06,25.82,25.82,0,0,0,4-2.13.71.71,0,0,0,.2,0,9.88,9.88,0,0,0,2.15-.72c.39-.23.5-.62.89-.88C76.27,124.66,76,123.44,75.16,123.59Z"/><path class="cls-1" d="M81.66,124.15a19.8,19.8,0,0,0-6.41.72c-.72.22-1.55.37-5.49,2.66-2.85,1.65-5.7,3.3-8.42,5.16a7.85,7.85,0,0,0-3.2,3.36,8.28,8.28,0,0,0-.34,3.33l.14,4.37a1.67,1.67,0,0,0,.27,1.06,1.63,1.63,0,0,0,.73.43c5.4,2,11.27,2.28,16.83,3.79,2.7.74,5.33,1.77,8.07,2.34,5.89,1.24,12.15.38,17.89,2.18,2.6.82,5.06,2.17,7.76,2.45,2.06.22,4.14-.2,6.2,0a3.4,3.4,0,0,0,1.19,0,2.79,2.79,0,0,0,1.06-.68,30.11,30.11,0,0,0,9.42-16.39c.52-2.6.55-5.67-1.41-7.45a8.06,8.06,0,0,0-3.14-1.56c-10.6-3.26-15-2.79-15-2.79-4.5-.44-7.85-.93-12.14-1.55A107,107,0,0,0,81.66,124.15Z"/><path class="cls-7" d="M114.58,153h-1.17c-1.23,0-3-.15-3.68-.68l.16-.12c.5-.38.46-1.37-.28-1.46-1.08-.14-2.18-.23-3.29-.3l-.85-.28.87.06a45.12,45.12,0,0,1,7.4,1.2.83.83,0,0,0,.89-.42,1.92,1.92,0,0,0-1.42-3.07c-1-.05-1.6.78-2.69.74a18.47,18.47,0,0,1-3.92-.87c-5.18-1.37-10.16-3.45-15.45-4.44-4.7-.88-9.49-.61-14.25-.89-3.59-.76-7.19-1.53-10.72-2.51-1.46-.4-2.84-1-4.28-1.46l-.09,0a.87.87,0,0,0-.52-.17,2.88,2.88,0,0,0-2.8,2l-.79,0c-.91,0-1,1.5-.13,1.6l1,.14.09.2a2.7,2.7,0,0,0,.37.5,6.21,6.21,0,0,0,.2,1.17.82.82,0,0,0,1.52.07,3,3,0,0,0,.78,1.68.81.81,0,0,0,1,.07,2.57,2.57,0,0,0,.67-.53.8.8,0,0,0,1-.6.29.29,0,0,0,0-.09,1,1,0,0,0,.29.2.82.82,0,0,0,.21,1.5,44.54,44.54,0,0,0,6.41.79.68.68,0,0,0,.53-.18.7.7,0,0,0,.62.7,11,11,0,0,1,1.48.36.82.82,0,0,0,.41.87,3.49,3.49,0,0,0,2.31.38l.21-.06a14.7,14.7,0,0,1,3.77,1.22.81.81,0,0,0,1.12-.49q2.54,1,5.14,1.74a.72.72,0,0,0,.94-.68l4.15-.21c.89-.05,1.06-1.47.13-1.6-.51-.08-1-.14-1.58-.21a.87.87,0,0,0-.44-.31c-.8-.22-1.6-.42-2.4-.62a47.87,47.87,0,0,1,5.19.47.78.78,0,0,0,.89-.47l1.48.34-.41,0c-.72-.05-.93.85-.56,1.33A.85.85,0,0,0,94.5,151c3.43.95,6.85,2,10.31,2.85a35.53,35.53,0,0,0,8.41.85c.54,0,1,0,1.45,0C115.72,154.64,115.62,153,114.58,153Zm-52-12.4-.06-.25v0c.3.1.62.24.94.38Zm2.15,2.49a.89.89,0,0,0-.45.14,2,2,0,0,0-.06-.3l.74.16Zm12,1,3.52.79h0a.92.92,0,0,0-.48.51.82.82,0,0,0-.53-.44c-1.41-.4-2.84-.72-4.27-1C75.49,144,76.09,144.05,76.7,144.09Zm1.71,2.76a1,1,0,0,0-.75.77c-.37-.08-.75-.16-1.13-.21a10.79,10.79,0,0,0-1.5-.79,38.17,38.17,0,0,0,4-.06.75.75,0,0,0,.69-.5.76.76,0,0,0,.34.32l.39.19C79.77,146.65,79.09,146.74,78.41,146.85Zm7-2.48c.85,0,1.69.11,2.53.2,4.61.48,9,2,13.39,3.37l.4.13c-1.11-.21-2.22-.45-3.36-.74C94,146.28,89.71,145.33,85.38,144.37Zm19.17,7.7-.62-.17,2,.15.9.3a.63.63,0,0,0,.73-.17l.29,0a2.88,2.88,0,0,0,.17.52A28.92,28.92,0,0,1,104.55,152.07Z"/><path class="cls-7" d="M36,134.58c-2.6-.86-5.14-1.57-7.88-1-.56.11-.54.73-.21,1l-2.61,0a.59.59,0,0,0-.58.72c-.24,0-.47,0-.71,0l-.19-.14a.66.66,0,0,0-.44-.9l-1.62-.46a4,4,0,0,0-1-.6,28.64,28.64,0,0,0,4.59,1.29c.82.15,1.09-1.12.27-1.27a34.91,34.91,0,0,1-7-2.23l-3.08-1.28c-.41-.17-1.46-.38-1.68-.7s-.08-1.28,0-1.76a.66.66,0,0,0-1.12-.57,1.76,1.76,0,0,0-.47.83,1,1,0,0,0-.17.18,5.33,5.33,0,0,0-.86,5.16c0,.17.11.35.17.53a.7.7,0,0,0,0,1.19l.66.44.15.3a3.28,3.28,0,0,0,.6,1.79,1.7,1.7,0,0,0,1.09.36,16.48,16.48,0,0,0,4.52,1.56.69.69,0,0,0,.64-.28c.85.19,1.7.37,2.56.53a.63.63,0,0,0,.77-.61l.37,0,.65,0a.7.7,0,0,0,.54,1.08,19.33,19.33,0,0,1,4.71.84c.55.16.84-.38.73-.81.45.12.9.23,1.36.32A.65.65,0,0,0,31,139a19.14,19.14,0,0,1-2.79-.75,3.37,3.37,0,0,1,1.13.25c.76.33,1.36-.82.59-1.15a4.29,4.29,0,0,0-1.73-.29c.36-.28.46-.86-.07-1.05l-.23-.07h.53a.64.64,0,0,0,.35-1.15c2.38-.42,4.71.33,7,1.08C36.5,136.11,36.77,134.84,36,134.58Zm-23.64-4.21-.09.57-.05,0a3.92,3.92,0,0,1,.31-1.31,1.18,1.18,0,0,0,.17.22l0,0A.59.59,0,0,0,12.34,130.37Zm12.62,7a2.31,2.31,0,0,0-.09-.75,8.71,8.71,0,0,1,2.21.35,3.32,3.32,0,0,1-1-.21c-.77-.29-1.37.86-.59,1.16a3.44,3.44,0,0,0,.83.19.57.57,0,0,0,.1.74,20.17,20.17,0,0,0-2.07-.25A1.28,1.28,0,0,0,25,137.42Zm-11.73-3.64h0a.77.77,0,0,0,0-.15c0-.25,0-.49.05-.73a6.56,6.56,0,0,0,1.58,1.19C14.33,134,13.78,133.9,13.23,133.78Zm5.58-1c-1-.42-2-.83-3-1.22q-.28-.21-.57-.45c.42.13.81.26,1.14.4,1.34.56,2.68,1.11,4,1.62A9.81,9.81,0,0,0,18.81,132.81Zm2.3,4.47-.17,0c.59.07,1.18.12,1.78.15a.68.68,0,0,0,.55-1,1.09,1.09,0,0,1,.33,1.11l-.89-.06C22.17,137.44,21.64,137.37,21.11,137.28Z"/><path class="cls-7" d="M39.92,134.71l-1.36.08a.65.65,0,0,0,.07,1.29L40,136A.65.65,0,0,0,39.92,134.71Z"/><path class="cls-7" d="M54.32,142.7l-1.37.07a.65.65,0,0,0,.07,1.3l1.37-.08A.65.65,0,0,0,54.32,142.7Z"/><path class="cls-7" d="M54.83,140.63l-1.36.08a.65.65,0,0,0,.07,1.29l1.37-.07A.65.65,0,0,0,54.83,140.63Z"/><path class="cls-7" d="M54.1,138.83l-1.36.08a.65.65,0,0,0,.07,1.29l1.36-.07A.65.65,0,0,0,54.1,138.83Z"/><path class="cls-7" d="M46.33,141.11l-1.36.07a.65.65,0,0,0,.07,1.3l1.36-.08A.65.65,0,0,0,46.33,141.11Z"/><path class="cls-7" d="M44.68,135.08l-2.73.15a.65.65,0,0,0,.08,1.3l2.73-.16A.65.65,0,0,0,44.68,135.08Z"/><path class="cls-7" d="M51.28,137l-2.73.15a.65.65,0,0,0,.07,1.29l2.73-.15A.65.65,0,0,0,51.28,137Z"/><path class="cls-7" d="M49.4,139.09l-2.73.15a.65.65,0,0,0,.07,1.3l2.73-.16A.65.65,0,0,0,49.4,139.09Z"/><path class="cls-7" d="M32.81,135.6a25.38,25.38,0,0,0-3.26.12c-.83.09-.76,1.39.07,1.3a25.54,25.54,0,0,1,3.27-.12C33.72,136.92,33.64,135.63,32.81,135.6Z"/><path class="cls-7" d="M34.29,137.54a6.9,6.9,0,0,1-2.79-.11c-.81-.2-1.08,1.07-.27,1.27a8,8,0,0,0,3.13.14C35.17,138.71,35.11,137.41,34.29,137.54Z"/><path class="cls-7" d="M38.84,136.8a6.13,6.13,0,0,0-2.82-.29c-.82.11-.76,1.4.07,1.3a5.23,5.23,0,0,1,2.48.26.65.65,0,1,0,.27-1.27Z"/><path class="cls-7" d="M44.9,139.58a6.15,6.15,0,0,0-2.82-.29c-.82.11-.76,1.41.07,1.3a5.36,5.36,0,0,1,2.48.26.66.66,0,0,0,.77-.5A.68.68,0,0,0,44.9,139.58Z"/><path class="cls-7" d="M37.06,139.93a5.88,5.88,0,0,0-3.2-.56.67.67,0,0,0-.28,1.23h0a6.48,6.48,0,0,0-1.86-.16.65.65,0,0,0,.07,1.3,4.87,4.87,0,0,1,1.52.13.65.65,0,0,0,.42-1.21.75.75,0,0,0,.22,0,4.52,4.52,0,0,1,2.53.42C37.22,141.44,37.81,140.29,37.06,139.93Z"/><path class="cls-7" d="M41.36,140.94a5.88,5.88,0,0,0-3.2-.56.67.67,0,0,0-.28,1.23h0a6.45,6.45,0,0,0-1.86-.16.65.65,0,0,0,.07,1.3,5.19,5.19,0,0,1,1.52.13c.75.19,1-.9.42-1.21a.77.77,0,0,0,.22,0,4.7,4.7,0,0,1,2.53.42C41.52,142.45,42.11,141.3,41.36,140.94Z"/><path class="cls-7" d="M49.68,145.29a6,6,0,0,0,3.24,0A.68.68,0,0,0,53,144h0a6.07,6.07,0,0,0,1.85-.19.65.65,0,0,0-.31-1.26,5.14,5.14,0,0,1-1.51.16.65.65,0,0,0-.19,1.27.51.51,0,0,0-.21,0A4.59,4.59,0,0,1,50,144C49.23,143.83,48.87,145.08,49.68,145.29Z"/><path class="cls-7" d="M39.7,138.72c-.47.31-1.16-.24-1.6-.41a2.33,2.33,0,0,0-1.54-.11c-.81.22-.4,1.45.41,1.23.6-.16,1.29.44,1.86.59a1.87,1.87,0,0,0,1.58-.22A.65.65,0,0,0,39.7,138.72Z"/><path class="cls-7" d="M52.17,141.15c-.37.42-1.18.1-1.65.06a2.34,2.34,0,0,0-1.51.32c-.71.44,0,1.5.74,1.07.53-.33,1.36.06,2,0a1.87,1.87,0,0,0,1.45-.66A.65.65,0,0,0,52.17,141.15Z"/><path class="cls-7" d="M45.66,137.45,42,137.31c-.84,0-.76,1.26.07,1.3l3.69.14C46.56,138.78,46.49,137.49,45.66,137.45Z"/><path class="cls-7" d="M43.58,142.64l-3.69-.14c-.83,0-.76,1.26.07,1.3l3.69.14C44.49,144,44.41,142.68,43.58,142.64Z"/><path class="cls-7" d="M2.79,112l.13,2.33a.81.81,0,0,0,1.62-.09l-.13-2.33A.81.81,0,0,0,2.79,112Z"/><path class="cls-7" d="M5.08,113.28l.15,2.54a.81.81,0,0,0,1.61-.09l-.14-2.54A.81.81,0,0,0,5.08,113.28Z"/><path class="cls-7" d="M7.93,112a.83.83,0,0,0-.76.86L7.24,114a.82.82,0,0,0,.85.77.84.84,0,0,0,.77-.86l-.07-1.21A.82.82,0,0,0,7.93,112Z"/><path class="cls-7" d="M9.21,117.6l.18,3.1a.81.81,0,0,0,1.62-.09l-.18-3.1A.81.81,0,0,0,9.21,117.6Z"/><path class="cls-7" d="M8.42,118.5a.83.83,0,0,0-.76.86l0,2.11a.81.81,0,0,0,1.62-.09l0-2.11A.83.83,0,0,0,8.42,118.5Z"/><path class="cls-7" d="M4.81,118.29,5,121.17a.81.81,0,0,0,1.62-.09l-.16-2.88A.81.81,0,0,0,4.81,118.29Z"/><path class="cls-7" d="M3.26,115.9a.82.82,0,0,0-.76.85l0,1a.81.81,0,1,0,1.62-.09l0-1A.83.83,0,0,0,3.26,115.9Z"/><path class="cls-7" d="M10.31,122.73a.81.81,0,0,0,.09,1.62A.81.81,0,0,0,10.31,122.73Z"/><path class="cls-7" d="M11.94,135.79a.81.81,0,0,0-.9-.74c-.08-1.26-.18-2.52-.32-3.78a.81.81,0,0,0-.19-.43.76.76,0,0,0,.12-.45l-.09-2a.78.78,0,0,0-1-.72.36.36,0,0,1,0-.11A.87.87,0,0,0,8.17,127c0-.18-.06-.37-.09-.55a.83.83,0,0,0,1.33-.67l-.11-2a.81.81,0,0,0-1.62.09L7.74,125a.86.86,0,0,0-.73-.33l-.07-1.16a.81.81,0,0,0-1.61.09v.3a.82.82,0,0,0-.83,0,.34.34,0,0,0,0-.1l-.16-2.89a.81.81,0,0,0-1.62.1l.16,2.88a.81.81,0,0,0,1.19.65s0,.06,0,.09L4,127.68a.75.75,0,0,0-.5.77l0,2.17a.72.72,0,0,0-.3.69c.11,1.22.23,2.45.34,3.67a.79.79,0,0,0,.32.59c.09.38.17.75.27,1.12a.64.64,0,0,0,.11.25v.12a.72.72,0,0,0,.11.32,1.73,1.73,0,0,0,0,.68c.27.91,1.45,1.25,2.4,1.43a.92.92,0,0,0,.8.14c1,.18,2.8.57,3.64,0C12.28,138.92,12.1,136.83,11.94,135.79Zm-3.56,2.32A.9.9,0,0,0,8.7,138a.65.65,0,0,0,.17.2l-.51,0A.31.31,0,0,0,8.38,138.11ZM6.3,125.88l0,2.13A.31.31,0,0,0,6.2,128c0-.23,0-.45,0-.68a.84.84,0,0,0-.26-.52c0-.32,0-.64-.08-1A.83.83,0,0,0,6.3,125.88Z"/><path class="cls-7" d="M42.39,107.87a.81.81,0,0,0-1.62.09,3.64,3.64,0,0,1,0,.57v.13c0,.1,0,.2,0,.3a.81.81,0,0,0,1.59.35A4.35,4.35,0,0,0,42.39,107.87Z"/><path class="cls-7" d="M42.07,103.92a.83.83,0,0,0-.76.86l0,.4a.81.81,0,1,0,1.62-.09l0-.4A.83.83,0,0,0,42.07,103.92Z"/><path class="cls-7" d="M39.93,117.34a4.41,4.41,0,0,1-.61-1.13c-.29-.78-1.53-.37-1.23.41a6.36,6.36,0,0,0,.75,1.44.67.67,0,0,0,.9.18A.66.66,0,0,0,39.93,117.34Z"/><path class="cls-7" d="M38.48,118.74l-1-1.77c-.41-.72-1.5,0-1.08.72l1,1.77C37.82,120.18,38.9,119.46,38.48,118.74Z"/><path class="cls-7" d="M47.76,99.21l-.22-.4a.66.66,0,0,0-.9-.18.67.67,0,0,0-.19.9l.23.39a.66.66,0,0,0,.9.19A.67.67,0,0,0,47.76,99.21Z"/><path class="cls-7" d="M49,98.41a.65.65,0,0,0,.07,1.3A.65.65,0,0,0,49,98.41Z"/><path class="cls-7" d="M86.41,102.12a.65.65,0,0,0,.08,1.29A.65.65,0,0,0,86.41,102.12Z"/><path class="cls-7" d="M88.54,102a.65.65,0,0,0,.08,1.3A.65.65,0,0,0,88.54,102Z"/><path class="cls-7" d="M85.18,107.17a.67.67,0,0,0-.61.69c0-.1,0,.14,0,.17a.56.56,0,0,0,0,.12.89.89,0,0,1-.08.17l0,.1s0,0-.05,0a.68.68,0,0,0,.05.92.67.67,0,0,0,.92,0,2.7,2.7,0,0,0,.58-1.56A.66.66,0,0,0,85.18,107.17Z"/><path class="cls-7" d="M85.68,109.72l.1,1.83a.65.65,0,0,0,1.3-.07l-.1-1.83A.65.65,0,0,0,85.68,109.72Z"/><path class="cls-7" d="M88.08,105.88a.67.67,0,0,0-.88.28l-.56,1.14a.65.65,0,1,0,1.15.59l.57-1.14A.66.66,0,0,0,88.08,105.88Z"/><path class="cls-7" d="M87.15,114.19a2.6,2.6,0,0,1-.42-.83.65.65,0,0,0-1.23.42,4.14,4.14,0,0,0,.57,1.13.65.65,0,0,0,1.08-.72Z"/><path class="cls-7" d="M89,112.83a7.13,7.13,0,0,1-.18-1.65c0-.84-1.28-.76-1.29.07a7.86,7.86,0,0,0,.24,2,.65.65,0,1,0,1.23-.41Z"/><path class="cls-7" d="M44.19,105.39a.66.66,0,0,0-.61.69l0,.4a.65.65,0,0,0,.68.61.66.66,0,0,0,.62-.68l0-.41A.65.65,0,0,0,44.19,105.39Z"/><path class="cls-7" d="M122.58,127l-1.52.08a.65.65,0,0,0,.07,1.3l1.52-.09A.65.65,0,0,0,122.58,127Z"/><path class="cls-7" d="M124.42,125.32l-1.21.07a.65.65,0,0,0,.07,1.29l1.21-.07A.65.65,0,0,0,124.42,125.32Z"/><path class="cls-7" d="M126.06,123.6l-.71,0a.65.65,0,1,0,.07,1.3l.71,0a.65.65,0,0,0-.07-1.3Z"/><path class="cls-7" d="M132.43,117.62a.67.67,0,0,0-.88.28l-.82,1.38a.64.64,0,0,0,.28.87.66.66,0,0,0,.87-.28l.83-1.38A.66.66,0,0,0,132.43,117.62Z"/><path class="cls-7" d="M136.73,111.08l-11.52,7.77a47.06,47.06,0,0,0-4.9,3.52,11.62,11.62,0,0,0-1.87,2c-.53.74-.92,1.91-1.83,2.26s-.46,1.92.52,1.54c1.62-.64,2.1-2.32,3.17-3.56a26,26,0,0,1,5.29-4.09l12-8.12A.81.81,0,0,0,136.73,111.08Z"/><path class="cls-7" d="M133.06,118.46a7.31,7.31,0,0,1-1.35,2c-.59.6.38,1.46,1,.86a7.89,7.89,0,0,0,1.54-2.22C134.57,118.29,133.41,117.7,133.06,118.46Z"/><path class="cls-7" d="M129.67,120.42a.65.65,0,0,0-.91,0l-1.23,1.6a.64.64,0,0,0,1,.86l1.24-1.59A.67.67,0,0,0,129.67,120.42Z"/><path class="cls-7" d="M131,122.38a.66.66,0,0,0-.92.05l-1.84,1.63a.65.65,0,0,0,.05.91.67.67,0,0,0,.92,0l1.84-1.63A.65.65,0,0,0,131,122.38Z"/><path class="cls-7" d="M130.59,116.61a.67.67,0,0,0-.92,0l-1.62,1.54a.66.66,0,0,0,0,.92.67.67,0,0,0,.92-.06l1.62-1.53A.67.67,0,0,0,130.59,116.61Z"/><path class="cls-1" d="M137.45,109.17s15.72-.42,16.58,2.79-.56,34.09-.56,34.09l-18.92,19.12-18-3.79s-1.26-32.36,2.23-36.11S138,111.47,138,111.47Z"/><path class="cls-7" d="M121.27,125.5l-1.77,3.83c-.44.95,1,1.69,1.44.74l1.77-3.83C123.15,125.29,121.71,124.55,121.27,125.5Z"/><path class="cls-7" d="M132.43,128c-.17-1-1.79-.94-1.62.09a8.07,8.07,0,0,1,0,2.5.89.89,0,0,0-.46,1.21,1.9,1.9,0,0,0,.68.7.83.83,0,0,0,1.17-.55A9.41,9.41,0,0,0,132.43,128Z"/><path class="cls-7" d="M128,126.73l-.68,2.91a.81.81,0,0,0,1.59.35c.22-1,.45-1.94.67-2.91A.81.81,0,0,0,128,126.73Z"/><path class="cls-7" d="M125.65,127l-1.13,2.81c-.38,1,1.06,1.71,1.44.74l1.13-2.81C127.48,126.76,126,126,125.65,127Z"/><path class="cls-7" d="M122.19,130.07l.2,3.52a.81.81,0,0,0,1.62-.09l-.2-3.52A.81.81,0,0,0,122.19,130.07Z"/><path class="cls-7" d="M125,132.5a.84.84,0,0,0-.76.86,17.11,17.11,0,0,0,0,2.48.81.81,0,0,0,1.61-.09,18.66,18.66,0,0,1,0-2.48A.82.82,0,0,0,125,132.5Z"/><path class="cls-7" d="M120,132.81l.27,4.69a.81.81,0,0,0,1.62-.09l-.27-4.69A.81.81,0,0,0,120,132.81Z"/><path class="cls-7" d="M117.48,131.65l0,4.57c0,1,1.61.95,1.62-.09l0-4.57C119.11,130.51,117.49,130.61,117.48,131.65Z"/><path class="cls-7" d="M117.62,139.34l.19,3.52a.81.81,0,0,0,1.62-.09l-.19-3.52A.81.81,0,0,0,117.62,139.34Z"/><path class="cls-7" d="M130,156.88a13.53,13.53,0,0,0,.34-1.65c.16-1.75.12-3.52.14-5.27l.18-12c0-.9-1.52-1-1.6-.12q-.5,5.8-.58,11.63c-.45,2.12-.91,4.24-1.36,6.36a1,1,0,0,0-.26-.27c.06-1.46.13-2.91.2-4.37a.81.81,0,0,0-1.11-.71c-.08-1-.23-1.93-.32-2.86a.83.83,0,0,0-1.59-.22.81.81,0,0,0-1.42.56c0,.75.07,1.49.07,2.23a.67.67,0,0,0-.33.21c0-.32-.1-.64-.17-1,.19-1.51.38-3,.53-4.55a5.76,5.76,0,0,0-.51-3.77.82.82,0,0,0-1.47.27c-.17,1.49-.31,3-.42,4.46a.89.89,0,0,0-.4.51,12.77,12.77,0,0,0-.37,1.6c0-.86-.09-1.72-.13-2.58a.81.81,0,0,0-1.62.09,53.92,53.92,0,0,1-.19,11.36c-.18,1.11-.58,2.48.3,3.42a2.15,2.15,0,0,0,1.1.59.75.75,0,0,0,.61.89,6.7,6.7,0,0,0,3.41-.21h0a2.9,2.9,0,0,0,1.24-.25,13.06,13.06,0,0,1,1.32.23,5,5,0,0,1,3.28,2.8c.41.82,1.45.2,1.49-.49l.18-2.92a3.86,3.86,0,0,0,.16-3.49A.79.79,0,0,0,130,156.88Zm-8.39-2.76a.84.84,0,0,0,.54-.13,17.36,17.36,0,0,1-.21,1.73c0,.17-.08.35-.13.53h0l-.15-.06C121.64,155.5,121.64,154.81,121.64,154.12Zm-2.4,3.91c0-1,.17-2.28.23-2.78,0,.25.07.51.12.77C119.48,156.69,119.36,157.36,119.24,158Zm5.84,1.07a2.17,2.17,0,0,0-.6-.64l-.12-.23a.73.73,0,0,0,.73-.13A6.65,6.65,0,0,0,125.08,159.1Zm3.84,2.47a5.64,5.64,0,0,0-1.16-.9l0-.13.37-1.71a3.17,3.17,0,0,0,.78,2.36Z"/><path class="cls-7" d="M126,138.35c-.1-1-1.72-.95-1.61.09a24.66,24.66,0,0,1-.13,6.19c-.16,1,1.43,1.38,1.58.35A25.82,25.82,0,0,0,126,138.35Z"/><path class="cls-7" d="M128,142.29c-.14-1-1.77-.94-1.62.09a21.15,21.15,0,0,1-.08,6.83c-.18,1,1.4,1.38,1.58.35A23,23,0,0,0,128,142.29Z"/><path class="cls-7" d="M128,135.11c-.12-1-1.74-1-1.61.09a14.25,14.25,0,0,1,0,3.69c-.15,1,1.44,1.38,1.59.35A15.44,15.44,0,0,0,128,135.11Z"/><path class="cls-7" d="M127.51,131.32a.81.81,0,0,0,.09,1.62A.81.81,0,0,0,127.51,131.32Z"/><path class="cls-7" d="M129.44,133a.83.83,0,0,0-.77.85l.08,1.3a.81.81,0,0,0,.85.77.84.84,0,0,0,.77-.86l-.08-1.3A.81.81,0,0,0,129.44,133Z"/><path class="cls-7" d="M152.09,113.16a6.76,6.76,0,0,0-2.78,1.66c-.75.73.46,1.81,1.21,1.08a5.05,5.05,0,0,1,2.08-1.2C153.6,114.4,153.09,112.86,152.09,113.16Z"/><path class="cls-7" d="M148.19,115.92a6.24,6.24,0,0,0-2.8,1.85l-3.26,3.09c-.76.72.45,1.8,1.21,1.08l2.61-2.47a6.44,6.44,0,0,1,2.76-2C149.72,117.22,149.2,115.68,148.19,115.92Z"/><path class="cls-7" d="M141,123.71a.82.82,0,0,0-1-.51,6.71,6.71,0,0,0-2.16,1.61c-.68.79.53,1.87,1.21,1.08a4.58,4.58,0,0,1,1.47-1.15A.84.84,0,0,0,141,123.71Z"/><path class="cls-7" d="M135.82,127.52a.81.81,0,0,0-1.09.35,3,3,0,0,1-1.12,1.38.81.81,0,0,0,.89,1.35,4.52,4.52,0,0,0,1.68-2A.83.83,0,0,0,135.82,127.52Z"/><path class="cls-7" d="M149.8,118.55a38,38,0,0,0-5.49,4.39c-.76.72.45,1.8,1.2,1.08a37.32,37.32,0,0,1,5.18-4.12A.81.81,0,0,0,149.8,118.55Z"/><path class="cls-7" d="M141.49,127.15a.84.84,0,0,0-1.15.06l-2,1.92a.81.81,0,0,0,.06,1.14.83.83,0,0,0,1.15-.06l2-1.92A.81.81,0,0,0,141.49,127.15Z"/><path class="cls-7" d="M146.67,125a40.52,40.52,0,0,0-4.39,4.3c-.69.79.52,1.87,1.21,1.08a38.72,38.72,0,0,1,4.07-4C148.35,125.72,147.47,124.36,146.67,125Z"/><path class="cls-7" d="M141.79,134.19q-2.76,2.43-5.35,5c-.73.75.48,1.82,1.21,1.08q2.59-2.61,5.35-5C143.78,134.58,142.56,133.51,141.79,134.19Z"/><path class="cls-7" d="M138,132.69a63.66,63.66,0,0,0-4.85,4.28c-.75.73.47,1.81,1.21,1.08a59.52,59.52,0,0,1,4.53-4C139.73,133.4,138.85,132,138,132.69Z"/><path class="cls-7" d="M135.22,131.9a.83.83,0,0,0-1.09.35,10.81,10.81,0,0,1-2,2.27.84.84,0,0,0-.23,1.12.82.82,0,0,0,1.13.23,13.39,13.39,0,0,0,2.59-2.88A.81.81,0,0,0,135.22,131.9Z"/><path class="cls-7" d="M134.83,140.84a.83.83,0,0,0-1.12-.23l-1.23.89a.83.83,0,0,0-.23,1.12.82.82,0,0,0,1.13.23l1.22-.88A.84.84,0,0,0,134.83,140.84Z"/><path class="cls-7" d="M150.39,128.25a15.57,15.57,0,0,0-3,2.2c-.77.71.45,1.78,1.21,1.08a13.79,13.79,0,0,1,2.7-1.92C152.19,129.1,151.29,127.75,150.39,128.25Z"/><path class="cls-7" d="M152.61,123.49l0,0,0,0Z"/><path class="cls-7" d="M153.33,122.37a.86.86,0,0,0-.4-.46.91.91,0,0,0-.63,0,1.85,1.85,0,0,0-1.13.86.81.81,0,0,0,0,.63.79.79,0,0,0,.4.46.81.81,0,0,0,1.06-.31s0,0,0,0l0,0,0,0,0,0v0h0l.17,0a.82.82,0,0,0,.46-.4A.86.86,0,0,0,153.33,122.37Z"/><path class="cls-7" d="M152.61,123.49h0C152.5,123.63,152.56,123.55,152.61,123.49Z"/><path class="cls-7" d="M152.59,123.49h0Z"/><path class="cls-1" d="M33,106.11a8.81,8.81,0,0,0-3.81,1.15c-.91.52,0,1.87.89,1.35a7.09,7.09,0,0,1,3-.88A.81.81,0,0,0,33,106.11Z"/><path class="cls-1" d="M25.21,108.19a34.65,34.65,0,0,1-4.66,1.5c-1,.25-.5,1.79.51,1.54a37.9,37.9,0,0,0,4.67-1.5C26.69,109.34,26.18,107.8,25.21,108.19Z"/><path class="cls-1" d="M18,110.39l-3.39,1.18a.81.81,0,0,0,.52,1.54l3.39-1.18A.81.81,0,0,0,18,110.39Z"/><path class="cls-1" d="M12.78,112.28a.81.81,0,0,0,.09,1.62A.81.81,0,0,0,12.78,112.28Z"/><path class="cls-1" d="M13.08,115.36a.81.81,0,0,0,.09,1.62A.81.81,0,0,0,13.08,115.36Z"/><path class="cls-1" d="M16,113.88a.81.81,0,0,0,.09,1.61A.81.81,0,0,0,16,113.88Z"/><path class="cls-1" d="M21.49,112.32a10.69,10.69,0,0,0-2.42.65c-1,.39-.46,1.93.52,1.54a9.23,9.23,0,0,1,2-.57.81.81,0,1,0-.09-1.62Z"/><path class="cls-1" d="M28.23,110.52a33.28,33.28,0,0,1-4.62,1.18c-1,.18-.93,1.8.09,1.62a37.65,37.65,0,0,0,5.05-1.26A.81.81,0,0,0,28.23,110.52Z"/><path class="cls-1" d="M18.61,115.84a8,8,0,0,1-3,.82.81.81,0,0,0,.09,1.62,9.92,9.92,0,0,0,3.84-1.09C20.43,116.72,19.53,115.37,18.61,115.84Z"/><path class="cls-1" d="M25.21,114.2a10.37,10.37,0,0,1-3.37.8.81.81,0,0,0,.09,1.61,11.62,11.62,0,0,0,3.8-.87C26.68,115.34,26.17,113.8,25.21,114.2Z"/><path class="cls-1" d="M32.14,112.39c-1.13.83-3,.87-4.32,1.12-1,.2-.93,1.82.09,1.62,1.65-.31,3.74-.36,5.13-1.39C33.87,113.13,33,111.77,32.14,112.39Z"/><path class="cls-1" d="M32.1,109.45l-.88,0a.81.81,0,1,0,.09,1.62l.88-.05a.82.82,0,0,0,.76-.85A.83.83,0,0,0,32.1,109.45Z"/><path class="cls-1" d="M24.82,117.31c-2.76.34-5.26,1.76-8,1.89a.81.81,0,0,0,.09,1.62c2.81-.13,5.29-1.55,8.05-1.89C25.94,118.81,25.86,117.19,24.82,117.31Z"/><path class="cls-1" d="M31.71,116.46l-3.31.37c-1,.11-.95,1.73.09,1.62l3.31-.37C32.83,118,32.75,116.34,31.71,116.46Z"/><path class="cls-8" d="M129.71,104.77c-5-.92-10-.87-15-1.46-1.27-.16-1.26,1.85,0,2,3,.35,18.9,0,19.14,3.76.08,1.27,2.08,1.28,2,0C135.62,105.77,132.53,105.29,129.71,104.77Z"/><path class="cls-8" d="M145,109.9a5.93,5.93,0,0,0-4-.53c-1.26.26-.73,2.19.53,1.92a3.84,3.84,0,0,1,2.49.34C145.13,112.22,146.15,110.49,145,109.9Z"/><path class="cls-8" d="M149.54,110.51,148,110a1,1,0,0,0-1.23.7,1,1,0,0,0,.7,1.23l1.53.54a1,1,0,0,0,1.23-.7A1,1,0,0,0,149.54,110.51Z"/><path class="cls-8" d="M111.25,103a1,1,0,0,0,0,2A1,1,0,0,0,111.25,103Z"/><path class="cls-8" d="M52,97.81a1,1,0,0,0,0,2A1,1,0,0,0,52,97.81Z"/><path class="cls-8" d="M55.23,97.64a1,1,0,0,0,0,2A1,1,0,0,0,55.23,97.64Z"/><path class="cls-8" d="M10.26,105.05a17.48,17.48,0,0,0-6.64,2.75c-1.05.72-.05,2.46,1,1.73A16.08,16.08,0,0,1,10.79,107C12.05,106.74,11.52,104.81,10.26,105.05Z"/><path class="cls-8" d="M14.63,103.8a1,1,0,0,0,0,2A1,1,0,0,0,14.63,103.8Z"/><path class="cls-8" d="M17.37,102.78a1,1,0,0,0,0,2A1,1,0,0,0,17.37,102.78Z"/><path class="cls-8" d="M37.05,99.41a8.47,8.47,0,0,0-4.68-.29c-1.26.27-.72,2.2.53,1.93a6.57,6.57,0,0,1,3.62.28C37.73,101.77,38.26,99.84,37.05,99.41Z"/><path class="cls-8" d="M80.74,125.38a9.28,9.28,0,0,0-7.51,1.92c-1,.8.41,2.21,1.41,1.42a7,7,0,0,1,5.57-1.41C81.47,127.53,82,125.6,80.74,125.38Z"/><path class="cls-8" d="M83.82,125.6a1,1,0,0,0,0,2A1,1,0,0,0,83.82,125.6Z"/><path class="cls-8" d="M37.77,119.21a34.79,34.79,0,0,0-5.76.47c-1.27.2-.73,2.13.53,1.93a32.81,32.81,0,0,1,5.23-.4A1,1,0,0,0,37.77,119.21Z"/><path class="cls-9" d="M9.79,0H156.25a9,9,0,0,1,9,9V19.63a0,0,0,0,1,0,0H0a0,0,0,0,1,0,0V9.79A9.79,9.79,0,0,1,9.79,0Z"/><path class="cls-8" d="M14.35,6.66a2.82,2.82,0,0,1,1.41,2.17h-1a1.92,1.92,0,0,0-.79-1.26,2.65,2.65,0,0,0-1.5-.4,2.32,2.32,0,0,0-1.8.83,3.55,3.55,0,0,0-.74,2.45,3.94,3.94,0,0,0,.61,2.29,2.23,2.23,0,0,0,2,.88A2.52,2.52,0,0,0,14.2,13a2.66,2.66,0,0,0,.7-2H12.43v-.88h3.46v4.22h-.68l-.26-1a3.87,3.87,0,0,1-.95.83,3.45,3.45,0,0,1-1.76.4,3.37,3.37,0,0,1-2.37-.91A4.36,4.36,0,0,1,8.79,10.5,4.5,4.5,0,0,1,9.85,7.35a3.34,3.34,0,0,1,2.6-1.12A4.07,4.07,0,0,1,14.35,6.66Z"/><path class="cls-8" d="M17.78,6.44h3.58a3.69,3.69,0,0,1,1.47.26,1.88,1.88,0,0,1,1.09,1.86,2,2,0,0,1-.3,1.16,2,2,0,0,1-.82.73,1.65,1.65,0,0,1,.7.49,1.79,1.79,0,0,1,.26,1l0,1.06a3.25,3.25,0,0,0,.07.67.66.66,0,0,0,.35.48v.18H22.91a.85.85,0,0,1-.09-.27,4.51,4.51,0,0,1-.05-.62l-.07-1.31a1.1,1.1,0,0,0-.56-1,2.12,2.12,0,0,0-.93-.15H18.85v3.39H17.78Zm3.47,3.61a2,2,0,0,0,1.16-.3,1.24,1.24,0,0,0,.42-1.08,1.17,1.17,0,0,0-.59-1.15,1.9,1.9,0,0,0-.85-.16H18.85v2.69Z"/><path class="cls-8" d="M32.09,7.57a4.35,4.35,0,0,1,.79,2.68,4.67,4.67,0,0,1-.9,2.93,3.55,3.55,0,0,1-3,1.38,3.61,3.61,0,0,1-2.87-1.2,4.56,4.56,0,0,1-.93-2.94A4.69,4.69,0,0,1,26,7.68a3.46,3.46,0,0,1,3-1.46A3.6,3.6,0,0,1,32.09,7.57Zm-.94,5a4.3,4.3,0,0,0,.63-2.33A3.32,3.32,0,0,0,31.05,8a2.5,2.5,0,0,0-2-.85,2.59,2.59,0,0,0-2,.85,3.56,3.56,0,0,0-.77,2.48A3.64,3.64,0,0,0,27,12.71a2.5,2.5,0,0,0,2.15.9A2.22,2.22,0,0,0,31.15,12.59Z"/><path class="cls-8" d="M34.67,6.44l1.49,6.41,1.78-6.41H39.1l1.79,6.42,1.48-6.42h1.18l-2.08,7.89H40.35L38.53,7.79,36.7,14.33H35.57L33.51,6.44Z"/><path class="cls-8" d="M44.77,6.44h1.08v7.89H44.77Z"/><path class="cls-8" d="M47.59,6.44h1.26l3.93,6.37V6.44h1v7.89H52.6L48.61,8v6.37h-1Z"/><path class="cls-8" d="M60.78,6.66A2.81,2.81,0,0,1,62.2,8.83H61.14a1.87,1.87,0,0,0-.78-1.26,2.68,2.68,0,0,0-1.5-.4A2.34,2.34,0,0,0,57.05,8a3.6,3.6,0,0,0-.73,2.45,3.94,3.94,0,0,0,.61,2.29,2.23,2.23,0,0,0,2,.88A2.52,2.52,0,0,0,60.64,13a2.66,2.66,0,0,0,.7-2H58.87v-.88h3.46v4.22h-.69l-.25-1a3.87,3.87,0,0,1-1,.83,3.45,3.45,0,0,1-1.76.4,3.37,3.37,0,0,1-2.37-.91,4.37,4.37,0,0,1-1.09-3.13,4.55,4.55,0,0,1,1.06-3.15,3.37,3.37,0,0,1,2.61-1.12A4,4,0,0,1,60.78,6.66Z"/><path class="cls-8" d="M76.7,7.57a4.35,4.35,0,0,1,.78,2.68,4.67,4.67,0,0,1-.89,2.93,3.55,3.55,0,0,1-3,1.38,3.61,3.61,0,0,1-2.87-1.2,4.56,4.56,0,0,1-.93-2.94,4.69,4.69,0,0,1,.8-2.74,3.45,3.45,0,0,1,3-1.46A3.6,3.6,0,0,1,76.7,7.57Zm-.94,5a4.3,4.3,0,0,0,.63-2.33A3.32,3.32,0,0,0,75.66,8a2.5,2.5,0,0,0-2-.85,2.57,2.57,0,0,0-2,.85,3.56,3.56,0,0,0-.77,2.48,3.64,3.64,0,0,0,.66,2.21,2.5,2.5,0,0,0,2.15.9A2.22,2.22,0,0,0,75.76,12.59Z"/><path class="cls-8" d="M78.76,6.44H80L84,12.81V6.44h1v7.89h-1.2L79.78,8v6.37h-1Z"/><path class="cls-8" d="M92,6.44h1.25l2.27,3.79L97.8,6.44h1.25l-3,4.71v3.18H95V11.15Z"/><path class="cls-8" d="M106.46,7.57a4.35,4.35,0,0,1,.78,2.68,4.73,4.73,0,0,1-.89,2.93,4,4,0,0,1-5.87.18,4.56,4.56,0,0,1-.93-2.94,4.62,4.62,0,0,1,.8-2.74,3.44,3.44,0,0,1,3-1.46A3.61,3.61,0,0,1,106.46,7.57Zm-.95,5a4.22,4.22,0,0,0,.64-2.33A3.37,3.37,0,0,0,105.42,8a2.51,2.51,0,0,0-2-.85,2.57,2.57,0,0,0-2,.85,3.51,3.51,0,0,0-.77,2.48,3.64,3.64,0,0,0,.66,2.21,2.49,2.49,0,0,0,2.15.9A2.22,2.22,0,0,0,105.51,12.59Z"/><path class="cls-8" d="M109.67,6.44v4.87a2.91,2.91,0,0,0,.32,1.43,1.71,1.71,0,0,0,1.63.86,1.91,1.91,0,0,0,1.86-.93,2.88,2.88,0,0,0,.27-1.36V6.44h1.07v4.43a5.14,5.14,0,0,1-.39,2.24,3.31,3.31,0,0,1-5.45,0,5.14,5.14,0,0,1-.39-2.24V6.44Z"/><path class="cls-8" d="M119.51,6.44h1.07v7h4v.94h-5Z"/><path class="cls-8" d="M127.93,6.44h1.21L132,14.33h-1.17L130,12h-3.1l-.85,2.37H125Zm1.78,4.65-1.22-3.48-1.26,3.48Z"/><path class="cls-8" d="M132.94,6.44h1.53l2.27,6.67L139,6.44h1.52v7.89h-1V9.67c0-.16,0-.43,0-.8V7.67l-2.25,6.66H136.2l-2.27-6.66v.25c0,.19,0,.48,0,.88s0,.69,0,.87v4.66h-1Z"/><path class="cls-8" d="M142.23,6.44h3.53a2.4,2.4,0,0,1,1.69.59,2.16,2.16,0,0,1,.65,1.67,2.4,2.4,0,0,1-.58,1.61,2.17,2.17,0,0,1-1.75.68H143.3v3.34h-1.07Zm4.15,1.08a2.36,2.36,0,0,0-1-.16H143.3v2.73h2.11a1.94,1.94,0,0,0,1.16-.31A1.19,1.19,0,0,0,147,8.71,1.2,1.2,0,0,0,146.38,7.52Z"/></g></g></svg>