<svg xmlns="http://www.w3.org/2000/svg" viewBox="0 0 176.91 150.08"><defs><style>.cls-1{fill:#ed4a2f;}.cls-2{fill:#ef7d72;}.cls-3{fill:#f7941d;}.cls-4{fill:#fff;}.cls-5{fill:#7dbfe8;}.cls-6{fill:#ed4a30;}.cls-7{fill:#f3b6b8;}.cls-8{fill:#21509d;}.cls-9{fill:#7996cd;}.cls-10{font-size:38px;fill:#231f20;font-family:Microsoft-Yi-Baiti, Microsoft Yi Baiti;font-style:italic;letter-spacing:0.51em;}.cls-11{fill:#f79520;}.cls-12{fill:#24326b;}</style></defs><title>plaza-icon-selectedAsset 27</title><g id="Layer_2" data-name="Layer 2"><g id="Layer_1-2" data-name="Layer 1"><rect class="cls-1" x="5.09" width="165.21" height="142.46" rx="9.57"/><path class="cls-2" d="M170.19,101.89c-11.32-32.69-34.35-55-55.8-54.82-2.83,0-10,0-17,4.35C77.84,63.57,81.59,97,67.16,97.54,49.51,98.22,60.05,67.51,39,70c-4.69.55-7.92,2.13-10.19,4.26-5.87,5.54-3.64,12.62-6.31,19.37l55,17-.89,2.86L21.1,96.32c-.26.41-.54.81-.86,1.22-2.09,2.69-6.95,5.9-15.15,7.33-.11,9.08.19,18.2.08,27.28-.06,5,5.39,10.28,10.34,10.31,48.18.3,95.67,0,143.84,0,7.52,0,12.34-5.52,10.83-11.78Z"/><path class="cls-3" d="M14.87,0H161.34a9,9,0,0,1,9,9V19.63a0,0,0,0,1,0,0H5.09a0,0,0,0,1,0,0V9.79A9.79,9.79,0,0,1,14.87,0Z"/><path class="cls-4" d="M8.88,11.36a2.19,2.19,0,0,0,.3,1.09,2,2,0,0,0,1.81.78,3.12,3.12,0,0,0,1-.17A1.21,1.21,0,0,0,13,11.87a1,1,0,0,0-.39-.92,3.87,3.87,0,0,0-1.24-.47l-1-.24a4.66,4.66,0,0,1-1.43-.52,1.66,1.66,0,0,1-.73-1.48A2.31,2.31,0,0,1,8.85,6.5a2.82,2.82,0,0,1,2-.69,3.43,3.43,0,0,1,2,.6,2.18,2.18,0,0,1,.85,1.92h-1a2,2,0,0,0-.33-1,1.84,1.84,0,0,0-1.59-.62,1.76,1.76,0,0,0-1.3.4,1.24,1.24,0,0,0-.4.92.91.91,0,0,0,.47.85A7.06,7.06,0,0,0,11,9.34l1.07.25a3.21,3.21,0,0,1,1.2.5A1.91,1.91,0,0,1,14,11.7a2,2,0,0,1-.93,1.87,4,4,0,0,1-2.16.56,3.19,3.19,0,0,1-2.25-.75,2.57,2.57,0,0,1-.8-2Z"/><path class="cls-4" d="M15.62,6h5.47V7h-4.4v2.4h3.87v.94H16.69V13.9H15.62Z"/><path class="cls-4" d="M25.39,6h5.48V7H26.46v2.4h3.88v.94H26.46V13.9H25.39Z"/><path class="cls-4" d="M32.11,6h5.73V7H33.16v2.4h4.32v.91H33.16V13h4.76v.94H32.11Z"/><path class="cls-4" d="M39.4,6h3.15A3,3,0,0,1,45,7.17a4.26,4.26,0,0,1,.79,2.67,5.27,5.27,0,0,1-.47,2.27,2.85,2.85,0,0,1-2.82,1.79H39.4Zm2.94,7a3,3,0,0,0,.87-.11,1.92,1.92,0,0,0,1-.81,3.31,3.31,0,0,0,.45-1.22,5.07,5.07,0,0,0,.07-.83,3.92,3.92,0,0,0-.56-2.28,2.1,2.1,0,0,0-1.84-.81H40.48V13Z"/><path class="cls-4" d="M47.39,6h5.73V7H48.44v2.4h4.32v.91H48.44V13H53.2v.94H47.39Z"/><path class="cls-4" d="M54.76,6h3.58a3.51,3.51,0,0,1,1.47.27A1.86,1.86,0,0,1,60.9,8.14a2.06,2.06,0,0,1-.3,1.16,2.13,2.13,0,0,1-.81.73,1.59,1.59,0,0,1,.69.49,1.73,1.73,0,0,1,.26,1l0,1.06a3.17,3.17,0,0,0,.07.67.7.7,0,0,0,.35.49v.17H59.89a.79.79,0,0,1-.09-.26,4.67,4.67,0,0,1,0-.62l-.07-1.32a1.13,1.13,0,0,0-.55-1,2.4,2.4,0,0,0-.94-.14H55.83V13.9H54.76Zm3.47,3.62a2,2,0,0,0,1.16-.3,1.26,1.26,0,0,0,.42-1.09,1.19,1.19,0,0,0-.59-1.15,2,2,0,0,0-.85-.16H55.83v2.7Z"/><path class="cls-4" d="M64.88,6h1.2L69,13.9H67.78L67,11.54H63.86L63,13.9H61.9Zm1.77,4.66L65.43,7.18l-1.26,3.49Z"/><path class="cls-4" d="M69.91,6H71v7h4v.94h-5Z"/><path class="cls-4" d="M78.66,6h3.41a2.26,2.26,0,0,1,2,.83A1.92,1.92,0,0,1,84.4,8,1.73,1.73,0,0,1,84,9.19a2.06,2.06,0,0,1-.63.47,2.57,2.57,0,0,1,.91.52,1.89,1.89,0,0,1,.53,1.42A2.19,2.19,0,0,1,84.3,13,2.71,2.71,0,0,1,82,13.9H78.66Zm3,3.34a2.36,2.36,0,0,0,1.06-.19,1.08,1.08,0,0,0,.6-1.06,1,1,0,0,0-.64-1,2.64,2.64,0,0,0-1.06-.15H79.7V9.35ZM82,13a1.64,1.64,0,0,0,1.41-.57,1.41,1.41,0,0,0,.27-.87,1.16,1.16,0,0,0-.78-1.17,2.93,2.93,0,0,0-1.09-.17H79.7V13Z"/><path class="cls-4" d="M87.17,6v4.88a2.83,2.83,0,0,0,.33,1.43,1.71,1.71,0,0,0,1.62.86A1.89,1.89,0,0,0,91,12.25a2.91,2.91,0,0,0,.27-1.36V6h1.08v4.43a5.14,5.14,0,0,1-.39,2.24,3.31,3.31,0,0,1-5.45,0,5,5,0,0,1-.4-2.24V6Z"/><path class="cls-4" d="M94.21,6h1.08V13.9H94.21Z"/><path class="cls-4" d="M97,6h1.07v7h4v.94H97Z"/><path class="cls-4" d="M103.19,6h3.15a3,3,0,0,1,2.49,1.16,4.26,4.26,0,0,1,.79,2.67,5.27,5.27,0,0,1-.47,2.27,2.85,2.85,0,0,1-2.82,1.79h-3.14Zm2.94,7a3,3,0,0,0,.87-.11,1.92,1.92,0,0,0,1-.81,3.31,3.31,0,0,0,.45-1.22,5.07,5.07,0,0,0,.07-.83A3.92,3.92,0,0,0,108,7.74a2.1,2.1,0,0,0-1.84-.81h-1.85V13Z"/><path class="cls-4" d="M111.32,6h1.08V13.9h-1.08Z"/><path class="cls-4" d="M114.14,6h1.26l3.93,6.38V6h1V13.9h-1.2l-4-6.36V13.9h-1Z"/><path class="cls-4" d="M127.33,6.24a2.77,2.77,0,0,1,1.42,2.16h-1.06a1.92,1.92,0,0,0-.78-1.26,2.7,2.7,0,0,0-1.5-.39,2.33,2.33,0,0,0-1.81.82,3.62,3.62,0,0,0-.73,2.45,3.92,3.92,0,0,0,.61,2.29,2.21,2.21,0,0,0,2,.88,2.43,2.43,0,0,0,1.73-.62,2.6,2.6,0,0,0,.71-2h-2.47V9.68h3.46V13.9h-.69l-.25-1a4.31,4.31,0,0,1-1,.83,3.55,3.55,0,0,1-1.76.39,3.37,3.37,0,0,1-2.37-.91,4.34,4.34,0,0,1-1.09-3.12,4.55,4.55,0,0,1,1.06-3.15,3.33,3.33,0,0,1,2.61-1.12A3.88,3.88,0,0,1,127.33,6.24Z"/><path class="cls-4" d="M133.8,6h3.53a2.38,2.38,0,0,1,1.69.6,2.13,2.13,0,0,1,.64,1.66,2.42,2.42,0,0,1-.57,1.61,2.17,2.17,0,0,1-1.76.69h-2.46V13.9H133.8Zm4.14,1.09a2.26,2.26,0,0,0-1-.17h-2.11V9.66H137a2.06,2.06,0,0,0,1.16-.3,1.22,1.22,0,0,0,.44-1.08A1.18,1.18,0,0,0,137.94,7.1Z"/><path class="cls-4" d="M141,6h1.07v7h4v.94h-5Z"/><path class="cls-4" d="M149.45,6h1.21l2.86,7.89h-1.17l-.82-2.36h-3.1l-.85,2.36h-1.1Zm1.77,4.66L150,7.18l-1.26,3.49Z"/><path class="cls-4" d="M153.9,13,158.75,7h-4.49V6h5.87v.92l-4.88,6h4.88v.94H153.9Z"/><path class="cls-4" d="M163.51,6h1.21l2.86,7.89h-1.17l-.83-2.36h-3.09l-.86,2.36h-1.09Zm1.77,4.66-1.21-3.49-1.27,3.49Z"/><polygon class="cls-5" points="22.48 93.61 21.1 96.32 62.7 111.69 77.44 114.78 79.65 109.79 22.48 93.61"/><path class="cls-4" d="M12.15,17.55c-4.5,0-4.51,7,0,7S16.66,17.55,12.15,17.55Z"/><path class="cls-4" d="M29.69,17.55c-4.5,0-4.51,7,0,7S34.2,17.55,29.69,17.55Z"/><path class="cls-4" d="M47.23,17.55c-4.5,0-4.51,7,0,7S51.75,17.55,47.23,17.55Z"/><path class="cls-4" d="M20.92,26.5c-4.5,0-4.51,7,0,7S25.43,26.5,20.92,26.5Z"/><path class="cls-4" d="M38.46,26.5c-4.5,0-4.51,7,0,7S43,26.5,38.46,26.5Z"/><path class="cls-4" d="M56,26.5c-4.51,0-4.52,7,0,7S60.52,26.5,56,26.5Z"/><rect class="cls-6" x="71.33" y="78.98" width="50.12" height="25.56"/><path class="cls-3" d="M79.13,81.58H75.74a1.26,1.26,0,0,0,0,2.52h3.39A1.26,1.26,0,0,0,79.13,81.58Z"/><path class="cls-3" d="M89,81.58h-3.4a1.26,1.26,0,0,0,0,2.52H89A1.26,1.26,0,0,0,89,81.58Z"/><path class="cls-3" d="M98.78,81.58H95.39a1.26,1.26,0,0,0,0,2.52h3.39A1.26,1.26,0,0,0,98.78,81.58Z"/><path class="cls-3" d="M108.61,81.58h-3.4a1.26,1.26,0,0,0,0,2.52h3.4A1.26,1.26,0,0,0,108.61,81.58Z"/><path class="cls-3" d="M118.44,81.58H115a1.26,1.26,0,0,0,0,2.52h3.4A1.26,1.26,0,0,0,118.44,81.58Z"/><path class="cls-3" d="M79.13,85.84H75.74a1.26,1.26,0,0,0,0,2.52h3.39A1.26,1.26,0,0,0,79.13,85.84Z"/><path class="cls-3" d="M89,85.84h-3.4a1.26,1.26,0,0,0,0,2.52H89A1.26,1.26,0,0,0,89,85.84Z"/><path class="cls-3" d="M98.78,85.84H95.39a1.26,1.26,0,0,0,0,2.52h3.39A1.26,1.26,0,0,0,98.78,85.84Z"/><path class="cls-3" d="M108.61,85.84h-3.4a1.26,1.26,0,0,0,0,2.52h3.4A1.26,1.26,0,0,0,108.61,85.84Z"/><path class="cls-3" d="M118.44,85.84H115a1.26,1.26,0,0,0,0,2.52h3.4A1.26,1.26,0,0,0,118.44,85.84Z"/><path class="cls-3" d="M79.13,90.1H75.74a1.26,1.26,0,0,0,0,2.52h3.39A1.26,1.26,0,0,0,79.13,90.1Z"/><path class="cls-3" d="M89,90.1h-3.4a1.26,1.26,0,0,0,0,2.52H89A1.26,1.26,0,0,0,89,90.1Z"/><path class="cls-3" d="M98.78,90.1H95.39a1.26,1.26,0,0,0,0,2.52h3.39A1.26,1.26,0,0,0,98.78,90.1Z"/><path class="cls-3" d="M108.61,90.1h-3.4a1.26,1.26,0,0,0,0,2.52h3.4A1.26,1.26,0,0,0,108.61,90.1Z"/><path class="cls-3" d="M118.44,90.1H115a1.26,1.26,0,0,0,0,2.52h3.4A1.26,1.26,0,0,0,118.44,90.1Z"/><path class="cls-3" d="M79.13,94.35H75.74a1.27,1.27,0,0,0,0,2.53h3.39A1.27,1.27,0,0,0,79.13,94.35Z"/><path class="cls-3" d="M89,94.35h-3.4a1.27,1.27,0,0,0,0,2.53H89A1.27,1.27,0,0,0,89,94.35Z"/><path class="cls-3" d="M98.78,94.35H95.39a1.27,1.27,0,0,0,0,2.53h3.39A1.27,1.27,0,0,0,98.78,94.35Z"/><path class="cls-3" d="M108.61,94.35h-3.4a1.27,1.27,0,0,0,0,2.53h3.4A1.27,1.27,0,0,0,108.61,94.35Z"/><path class="cls-3" d="M118.44,94.35H115a1.27,1.27,0,0,0,0,2.53h3.4A1.27,1.27,0,0,0,118.44,94.35Z"/><path class="cls-4" d="M29.69,35.5c-4.5,0-4.51,7,0,7S34.2,35.5,29.69,35.5Z"/><path class="cls-4" d="M47.23,35.5c-4.5,0-4.51,7,0,7S51.75,35.5,47.23,35.5Z"/><path class="cls-4" d="M47.23,53.5c-4.5,0-4.51,7,0,7S51.75,53.5,47.23,53.5Z"/><path class="cls-4" d="M64.78,35.5c-4.51,0-4.52,7,0,7S69.29,35.5,64.78,35.5Z"/><path class="cls-4" d="M20.92,44.5c-4.5,0-4.51,7,0,7S25.43,44.5,20.92,44.5Z"/><path class="cls-4" d="M38.46,44.5c-4.5,0-4.51,7,0,7S43,44.5,38.46,44.5Z"/><path class="cls-4" d="M56,44.5c-4.51,0-4.52,7,0,7S60.52,44.5,56,44.5Z"/><path class="cls-4" d="M64.78,53.5c-4.51,0-4.52,7,0,7S69.29,53.5,64.78,53.5Z"/><rect class="cls-5" x="40.89" y="93.15" width="18.98" height="18.98"/><path class="cls-3" d="M5.09,88.2v3.18l16,4.94a15.74,15.74,0,0,0,1.38-2.71Z"/><path class="cls-4" d="M40.89,99.29v3.14l19,5.86c0-1.15,0-2.05,0-3.1Z"/><rect class="cls-7" x="61.59" y="102.8" width="25.91" height="2.99" transform="translate(36.21 -18.04) rotate(18.15)"/><rect class="cls-8" x="40.89" y="112.12" width="18.98" height="18.98"/><rect class="cls-9" x="21.91" y="112.12" width="18.98" height="18.98"/><text class="cls-10" transform="translate(94 72.77)">	</text><path class="cls-11" d="M160.8,2a7.58,7.58,0,0,1,7.57,7.57V132.89a7.58,7.58,0,0,1-7.57,7.57H14.72a7.58,7.58,0,0,1-7.57-7.57V9.57A7.58,7.58,0,0,1,14.72,2H160.8m0-2H14.72A9.56,9.56,0,0,0,5.15,9.57V132.89a9.57,9.57,0,0,0,9.57,9.57H160.8a9.58,9.58,0,0,0,9.57-9.57V9.57A9.57,9.57,0,0,0,160.8,0Z"/><path class="cls-4" d="M3.38,26.5c-4.5,0-4.51,7,0,7S7.89,26.5,3.38,26.5Z"/><path class="cls-4" d="M12.15,35.5c-4.5,0-4.51,7,0,7S16.66,35.5,12.15,35.5Z"/><path class="cls-5" d="M162.69,113.64H98.19Q103.6,97.38,109,81.1q-5.4-20-10.81-40.06h64.5L174.06,81.5Z"/><rect class="cls-12" x="93.79" y="46.44" width="75.31" height="2.99" rx="1.5"/><rect class="cls-12" x="96.39" y="56.08" width="75.31" height="2.99" rx="1.5"/><rect class="cls-12" x="99" y="65.72" width="75.31" height="2.99" rx="1.5"/><rect class="cls-12" x="101.6" y="75.37" width="75.31" height="2.99" rx="1.5"/><rect class="cls-12" x="100.3" y="85.01" width="75.31" height="2.99" rx="1.5"/><rect class="cls-12" x="99" y="94.65" width="75.31" height="2.99" rx="1.5"/><rect class="cls-12" x="93.79" y="104.29" width="75.31" height="2.99" rx="1.5"/><path class="cls-4" d="M130,110.51c-4.5,0-4.51,7,0,7S134.47,110.51,130,110.51Z"/><path class="cls-4" d="M147.5,110.51c-4.5,0-4.51,7,0,7S152,110.51,147.5,110.51Z"/><path class="cls-4" d="M112.42,110.51c-4.51,0-4.51,7,0,7S116.93,110.51,112.42,110.51Z"/><path class="cls-4" d="M112.42,92.56c-4.51,0-4.51,7,0,7S116.93,92.56,112.42,92.56Z"/><path class="cls-4" d="M103.65,101.46c-4.51,0-4.51,7,0,7S108.16,101.46,103.65,101.46Z"/><path class="cls-4" d="M121.19,119.46c-4.51,0-4.51,7,0,7S125.7,119.46,121.19,119.46Z"/><path class="cls-4" d="M121.19,101.46c-4.51,0-4.51,7,0,7S125.7,101.46,121.19,101.46Z"/><path class="cls-4" d="M138.73,119.46c-4.5,0-4.51,7,0,7S143.24,119.46,138.73,119.46Z"/><path class="cls-4" d="M156.27,119.46c-4.5,0-4.51,7,0,7S160.78,119.46,156.27,119.46Z"/><path class="cls-4" d="M103.65,119.46c-4.51,0-4.51,7,0,7S108.16,119.46,103.65,119.46Z"/><path class="cls-4" d="M84.36,119.46c-4.5,0-4.51,7,0,7S88.87,119.46,84.36,119.46Z"/><path class="cls-4" d="M130,128.46c-4.5,0-4.51,7,0,7S134.47,128.46,130,128.46Z"/><path class="cls-4" d="M147.5,128.46c-4.5,0-4.51,7,0,7S152,128.46,147.5,128.46Z"/><path class="cls-4" d="M165,128.46c-4.5,0-4.51,7,0,7S169.55,128.46,165,128.46Z"/><path class="cls-4" d="M112.42,128.46c-4.51,0-4.51,7,0,7S116.93,128.46,112.42,128.46Z"/><path class="cls-4" d="M93.74,128.46c-4.5,0-4.51,7,0,7S98.25,128.46,93.74,128.46Z"/><path class="cls-4" d="M138.73,137.46c-4.5,0-4.51,7,0,7S143.24,137.46,138.73,137.46Z"/><path class="cls-4" d="M156.27,137.46c-4.5,0-4.51,7,0,7S160.78,137.46,156.27,137.46Z"/><path class="cls-4" d="M121.19,137.46c-4.51,0-4.51,7,0,7S125.7,137.46,121.19,137.46Z"/><path class="cls-4" d="M103.65,137.46c-4.51,0-4.51,7,0,7S108.16,137.46,103.65,137.46Z"/><path class="cls-12" d="M5,132.76a10,10,0,0,0,10,9.83h6.9V131.1H5Z"/><rect class="cls-3" x="21.91" y="131.1" width="18.98" height="18.98"/><rect class="cls-7" x="59.86" y="130.8" width="18.98" height="18.98"/><rect class="cls-3" x="59.86" y="130.8" width="18.98" height="11.79"/><rect class="cls-6" x="21.91" y="131.1" width="18.98" height="11.48"/></g></g></svg>