<svg xmlns="http://www.w3.org/2000/svg" viewBox="0 0 67.88 19.74"><defs><style>.cls-1{fill:none;stroke:#facee0;stroke-linecap:round;stroke-miterlimit:10;stroke-width:4px;}</style></defs><title>Asset 3</title><g id="Layer_2" data-name="Layer 2"><g id="Layer_1-2" data-name="Layer 1"><path class="cls-1" d="M2,11.35a7.59,7.59,0,0,0,4.85,6.13c3.42,1.06,6.55-1.5,7.79-2.43,2.82-2.12,3.23-5,3.22-7.44,0-7.18-8.8-7-8.76,0a8.68,8.68,0,0,0,3,6.72c3.17,2.81,7.56,3,8.48,3.05"/><path class="cls-1" d="M34.84,17.23a13.91,13.91,0,0,1-8.77-2.37c-2.85-2.11-3.27-5-3.28-7.4,0-7.18,8.73-7.07,8.76,0a8.71,8.71,0,0,1-2.93,6.75c-3.14,2.84-7.53,3.08-8.45,3.12"/><path class="cls-1" d="M48,17.17a13.9,13.9,0,0,1-8.76-2.37c-2.85-2.11-3.27-5-3.29-7.4,0-7.18,8.73-7.08,8.77,0a8.74,8.74,0,0,1-2.93,6.75c-3.15,2.83-7.53,3.08-8.46,3.12"/><path class="cls-1" d="M65.88,12.94c-.24.41-2.48,4.09-6.52,4.4-3.13.24-5.54-1.69-6.66-2.58a7.9,7.9,0,0,1-1.88-2,9.64,9.64,0,0,1-1.41-5.45c0-7.18,8.73-7.07,8.77,0a8.74,8.74,0,0,1-2.93,6.75,13.31,13.31,0,0,1-8,3.1l-.45,0"/></g></g></svg>